<svg xmlns="http://www.w3.org/2000/svg" viewBox="0 0 288.35 74.9"><defs><style>.cls-1{fill:#414042;}.cls-2{fill:#f7941d;}</style></defs><g id="Layer_2" data-name="Layer 2"><g id="Layer_1-2" data-name="Layer 1"><path class="cls-1" d="M72.25,3.7H99.77V11H80.62V22.45H97v7.27H80.62V42.08h19.63v7.28h-28Z"/><path class="cls-1" d="M141.73,3.7h9.11l2.48,45.66h-8l-1.7-31.43h-.15L132.93,44.27h-6.31L116.32,18.2h-.14l-1.71,31.16h-8l2.6-45.66h9.34l11.39,29.87H130Z"/><path class="cls-1" d="M170.63,49.36h-8.38V3.7H178c10.09,0,16.26,4.81,16.26,14,0,10.42-7.41,15.64-17.77,15.64h-5.83Zm4.93-22.64c6,0,10-2.07,10-8.18,0-7.07-4.05-8.17-10.77-8.17h-4.18V26.72Z"/><path class="cls-1" d="M201.39,49.36V3.7h8.36V49.36Z"/><path class="cls-1" d="M227.87,49.36h-8.36V3.7H234.8c10.1,0,16.5,3.31,16.5,12.65a12.41,12.41,0,0,1-7.92,12.08c1.87.68,2.77,1.85,3.78,4.18l7.57,16.75h-8.94L239.2,35c-1-2.13-2.13-3.57-4.53-3.57h-6.8Zm6.87-24.51c4.93,0,8-2.67,8-7.89,0-5.83-3.56-6.59-10.08-6.59h-4.81V24.85Z"/><path class="cls-1" d="M260.35,3.7h27.52V11H268.74V22.45h16.39v7.27H268.74V42.08h19.61v7.28h-28Z"/><path class="cls-2" d="M57.1,12.69A12.69,12.69,0,0,0,44.41,0H13.82A12.69,12.69,0,0,0,1.13,12.69L0,51.9A12.67,12.67,0,0,0,6,62.63s0,.09.1.11l.33.16a13.57,13.57,0,0,0,1.37.7L30,74.78a.94.94,0,0,0,.47.12h0a1,1,0,0,0,1-1,1.13,1.13,0,0,0-.1-.44l-1.32-8.85H45.53A12.68,12.68,0,0,0,58.22,51.9Zm-11.25,28C38,51.65,21.21,52.2,12.17,42.43,10.83,41,16,37.57,17.58,39.31,23,45.19,35.44,48.58,40.89,41,42,39.39,47.88,37.89,45.85,40.72Z"/><path class="cls-1" d="M72.27,56.31V72.5H201.33V56.31ZM83,60.81H80v8.64H78.14V60.81H75.22V59.17H83ZM93.8,69.45H91.9V65H87.52v4.43H85.63V59.17h1.89v4.2H91.9v-4.2h1.9Zm9.76,0H97.24V59.17h6.21v1.64H99.13v2.58h3.7V65h-3.7v2.79h4.43Zm13,0-2.34-4.57-1.49,2v2.58h-1.87V59.17h1.87v5.16l3.69-5.16h2l-2.94,4.19,3.2,6.09Zm12.69,0h-1.81l-4.44-7.25h0v7.25h-1.86V59.17h1.9l4.33,7.14h0V59.17h1.88Zm7.44.19c-2.75,0-4.39-1.78-4.39-5.31,0-4,2.4-5.35,4.56-5.35,2.31,0,4.31,1.42,4.31,5.35C141.22,67.88,139.45,69.64,136.74,69.64Zm16.36-.19H151l-1.66-6.69h0l-1.6,6.69h-2.15l-2.26-10.28h1.89l1.59,7.67h.07L148.41,60h1.92l1.61,6.87h0l1.49-7.69h1.86Zm8.27-3.74h-4.05V64.29h4.05Zm11,3.74h-1.9V65h-4.38v4.43h-1.89V59.17h1.89v4.2h4.38v-4.2h1.9Zm7.45.19c-2.76,0-4.4-1.78-4.4-5.31,0-4,2.4-5.35,4.57-5.35s4.3,1.42,4.3,5.35C184.28,67.88,182.51,69.64,179.81,69.64Zm16.35-.19h-2.1l-1.66-6.69h0l-1.6,6.69h-2.15l-2.26-10.28h1.89l1.6,7.67h.06L191.48,60h1.91L195,66.86h0l1.48-7.69h1.86Z"/><path class="cls-1" d="M179.88,60.57c-1.85,0-2.54,1.85-2.54,3.69s.45,3.82,2.57,3.82c1.88,0,2.45-1.84,2.45-3.7C182.36,62.8,181.86,60.57,179.88,60.57Z"/><path class="cls-1" d="M136.82,60.57c-1.86,0-2.54,1.85-2.54,3.69s.45,3.82,2.57,3.82c1.87,0,2.45-1.84,2.45-3.7C139.3,62.8,138.8,60.57,136.82,60.57Z"/><path class="cls-1" d="M210.07,69.45V59.17H212V69.45Z"/><path class="cls-1" d="M223.56,59.17V69.45h-1.81l-4.44-7.25h0v7.25h-1.86V59.17h1.91l4.33,7.14h0V59.17Z"/><path class="cls-1" d="M227.06,67.1a6.12,6.12,0,0,0,2.87.9c.82,0,1.65-.26,1.65-1.42,0-1-.88-1.27-2-1.56-1.54-.42-3-1-3-3s1.46-3,3.48-3a5.09,5.09,0,0,1,3.55,1.45l-1,1.26a4.13,4.13,0,0,0-2.54-1.1c-.69,0-1.51.29-1.51,1.25s.89,1.26,2.05,1.61c1.41.45,2.9,1,2.9,3s-1.46,3.14-3.69,3.14a6.85,6.85,0,0,1-3.52-1Z"/><path class="cls-1" d="M243.41,59.17v1.64h-3v8.64h-1.87V60.81h-2.92V59.17Z"/><path class="cls-1" d="M246.06,69.45V59.17h1.88V69.45Z"/><path class="cls-1" d="M258.39,59.17v1.64h-3v8.64h-1.87V60.81h-2.93V59.17Z"/><path class="cls-1" d="M262.8,59.17V66.1c0,1.52.85,2,2,2a1.74,1.74,0,0,0,1.93-1.88v-7h1.89v7.27c0,2-1.58,3.2-3.88,3.2-2.54,0-3.84-1-3.84-3.45v-7Z"/><path class="cls-1" d="M279,59.17v1.64h-3v8.64h-1.87V60.81h-2.93V59.17Z"/><path class="cls-1" d="M281.61,59.17h6.2v1.64H283.5v2.58h3.7V65h-3.7v2.79h4.42v1.63h-6.31Z"/></g></g></svg>