<?xml version="1.0" standalone="no"?>
<!DOCTYPE svg PUBLIC "-//W3C//DTD SVG 20010904//EN"
 "http://www.w3.org/TR/2001/REC-SVG-20010904/DTD/svg10.dtd">
<svg version="1.0" xmlns="http://www.w3.org/2000/svg"
 width="512.000000pt" height="512.000000pt" viewBox="0 0 512.000000 512.000000"
 preserveAspectRatio="xMidYMid meet">
<metadata>
Created by potrace 1.11, written by Peter Selinger 2001-2013
</metadata>
<g transform="translate(0.000000,512.000000) scale(0.100000,-0.100000)"
fill="#000000" stroke="none">
<path d="M1727 4024 c-1 -1 -34 -5 -72 -9 -57 -5 -158 -26 -285 -59 -37 -10
-171 -68 -235 -102 -164 -87 -342 -237 -461 -390 -35 -45 -64 -84 -64 -87 0
-4 -12 -23 -26 -44 -69 -101 -161 -327 -184 -455 -6 -29 -12 -64 -15 -78 -23
-107 -23 -406 -1 -471 3 -8 7 -30 10 -49 17 -112 84 -303 148 -419 28 -53 97
-161 108 -171 3 -3 18 -23 34 -45 17 -22 74 -84 127 -137 197 -194 442 -323
730 -385 119 -25 420 -25 539 0 146 31 278 79 398 142 l83 44 37 -22 c44 -28
207 -98 277 -121 44 -14 101 -28 210 -52 63 -13 350 -13 440 1 442 69 828 340
1047 735 185 333 231 753 123 1124 -116 402 -405 739 -786 919 -49 23 -186 72
-229 83 -141 33 -251 48 -360 47 -72 0 -210 -10 -244 -18 -11 -3 -32 -7 -46
-9 -104 -17 -262 -73 -377 -133 -88 -46 -114 -51 -132 -29 -27 32 -304 139
-420 161 -97 19 -362 39 -374 29z m263 -338 c14 -3 39 -8 55 -12 39 -7 206
-62 223 -73 10 -6 3 -20 -28 -57 -23 -27 -49 -58 -59 -69 -127 -156 -240 -393
-280 -585 -20 -96 -21 -104 -28 -170 -14 -133 -6 -326 17 -439 20 -97 55 -211
64 -211 7 0 281 98 293 104 1 1 -9 44 -23 95 -85 326 -24 670 166 945 61 88
182 212 265 271 209 149 437 218 697 210 70 -2 131 -5 135 -8 4 -3 26 -8 47
-11 64 -10 215 -64 290 -104 83 -43 201 -130 267 -194 48 -47 143 -165 168
-208 122 -210 172 -389 172 -611 0 -248 -80 -492 -225 -684 -49 -65 -199 -209
-262 -252 -87 -59 -220 -127 -269 -138 -5 -1 -17 -5 -25 -8 -123 -50 -397 -66
-555 -33 -85 17 -255 75 -255 86 0 3 15 21 33 40 345 371 467 921 318 1427
-16 53 -17 53 -104 22 -45 -17 -86 -32 -92 -33 -5 -2 -17 -6 -25 -9 -8 -4 -32
-12 -52 -19 -20 -7 -38 -15 -39 -18 -1 -3 8 -45 19 -95 27 -115 38 -212 36
-306 -10 -370 -197 -719 -489 -915 -62 -42 -189 -114 -202 -116 -10 -1 -20 -4
-58 -19 -32 -13 -35 -14 -75 -25 -156 -41 -364 -49 -523 -19 -64 12 -198 60
-272 97 -268 134 -474 372 -568 658 -19 58 -38 125 -41 150 -3 25 -8 56 -11
70 -7 32 -7 234 -1 280 3 19 12 67 20 106 67 320 287 610 576 763 75 39 234
98 288 106 15 3 50 8 77 13 52 9 291 8 335 -2z"/>
</g>
</svg>
