<svg width="235" height="353" viewBox="0 0 235 353" fill="none" xmlns="http://www.w3.org/2000/svg">
    <g clip-path="url(#clip0_2816_5695)">
        <path d="M190.358 225.261C190.358 226.758 189.814 228.193 188.844 229.252C187.875 230.31 186.56 230.905 185.189 230.905H104.844C103.473 230.905 102.158 230.31 101.188 229.252C100.219 228.193 99.6742 226.758 99.6742 225.261C99.6742 223.764 100.219 222.329 101.188 221.271C102.158 220.212 103.473 219.618 104.844 219.618H185.189C186.56 219.618 187.875 220.212 188.844 221.271C189.814 222.329 190.358 223.764 190.358 225.261Z" fill="white" stroke="#FFCD10" stroke-width="1.41359" stroke-miterlimit="10"/>
        <path d="M161.621 239.997H131.379C130.409 239.997 129.478 239.576 128.791 238.827C128.105 238.077 127.719 237.061 127.719 236.001V230.905H165.279V236.004C165.278 237.063 164.893 238.078 164.207 238.827C163.521 239.575 162.591 239.996 161.621 239.997V239.997Z" fill="white" stroke="#FFCD10" stroke-width="1.41359" stroke-miterlimit="10"/>
        <path d="M142.538 309.154H150.45V239.997H142.538V309.154Z" fill="white" stroke="#FFCD10" stroke-width="1.41359" stroke-miterlimit="10"/>
        <path d="M142.013 326.994H150.98C152.727 326.994 154.143 325.448 154.143 323.54V312.608C154.143 310.701 152.727 309.154 150.98 309.154H142.013C140.266 309.154 138.849 310.701 138.849 312.608V323.54C138.849 325.448 140.266 326.994 142.013 326.994Z" fill="white" stroke="#FFCD10" stroke-width="1.41359" stroke-miterlimit="10"/>
        <path d="M181.511 343.061C181.511 338.8 179.96 334.713 177.2 331.7C174.44 328.687 170.696 326.994 166.793 326.994H126.196C122.293 326.994 118.55 328.687 115.79 331.7C113.029 334.713 111.479 338.8 111.479 343.061" stroke="#3D3EFF" stroke-width="1.41359" stroke-miterlimit="10"/>
        <path d="M181.777 351.408C185.033 351.408 187.673 348.527 187.673 344.972C187.673 341.417 185.033 338.535 181.777 338.535C178.521 338.535 175.881 341.417 175.881 344.972C175.881 348.527 178.521 351.408 181.777 351.408Z" fill="white" stroke="#FFCD10" stroke-width="1.41359" stroke-miterlimit="10"/>
        <path d="M111.107 351.408C114.363 351.408 117.003 348.527 117.003 344.972C117.003 341.417 114.363 338.535 111.107 338.535C107.85 338.535 105.211 341.417 105.211 344.972C105.211 348.527 107.85 351.408 111.107 351.408Z" fill="white" stroke="#FFCD10" stroke-width="1.41359" stroke-miterlimit="10"/>
        <path d="M146.707 351.408C149.963 351.408 152.603 348.527 152.603 344.972C152.603 341.417 149.963 338.535 146.707 338.535C143.451 338.535 140.811 341.417 140.811 344.972C140.811 348.527 143.451 351.408 146.707 351.408Z" fill="white" stroke="#FFCD10" stroke-width="1.41359" stroke-miterlimit="10"/>
        <path d="M69.8486 317.848C67.2173 324.663 64.8212 330.25 62.9938 333.916C61.6342 336.642 59.2665 352.54 46.8182 346.134C46.3788 345.909 51.7293 344.402 53.4172 331.249C54.0082 326.638 54.5502 322.191 55.043 317.908C59.9127 318.269 66.0903 318.049 69.8486 317.848Z" fill="#FFA4A4"/>
        <path d="M67.1577 352.54C67.1577 352.54 72.1695 333.606 65.4672 330.716C63.327 329.793 60.7319 332.127 60.0392 340.096C59.4318 347.063 50.1085 348.144 49.2297 343.64C49.2297 343.64 37.7998 346.18 37.7998 352.54H67.1577Z" fill="#303083"/>
        <path d="M73.2317 317.634C73.2317 317.634 59.3876 318.715 52.1063 317.583C52.1063 317.583 42.4393 207.489 43.8842 196.163C45.6237 182.536 87.1766 170.459 108.659 166.629L112.616 147.063C112.616 147.063 141.679 146.498 158.09 146.498C158.09 146.498 175.666 180.643 173.857 203.217C172.048 225.792 134.15 220.667 83.5372 220.667C83.5372 220.667 98.9683 254.673 73.2317 317.634Z" fill="#3D3EFF"/>
        <path d="M115.405 318.385C111.554 318.758 107.68 318.724 103.835 318.283C105.128 323.772 106.322 329.006 107.27 333.682C107.883 336.684 103.946 340.737 102.825 343.685L102.912 343.64C108.082 342.74 115.017 348.085 114.304 339.743C113.59 331.402 114.686 329.322 115.405 318.385Z" fill="#FFA4A4"/>
        <path d="M114.149 333.606C115.927 333.606 118.817 337.116 118.53 342.737C118.365 346.091 117.729 349.397 116.643 352.54H96.655C97.0065 346.487 102.913 343.64 102.913 343.64C108.082 342.74 114.759 348.085 114.045 339.743L114.149 333.606Z" fill="#303083"/>
        <path d="M129.797 177.211C129.797 177.211 85.7446 185.903 80.7405 200.308C75.7364 214.713 99.0795 317.626 99.0795 317.626C112.613 319.883 119.556 317.626 119.556 317.626C133.633 247.148 117.139 223.772 117.139 223.772C149.943 222.251 170.644 225.648 173.86 203.234C174.886 196.118 167.555 168.895 129.797 177.211Z" fill="#3D3EFF"/>
        <path d="M129.021 177.211C129.021 177.211 84.9691 185.902 79.9649 200.308C74.9608 214.713 98.3039 317.626 98.3039 317.626" stroke="white" stroke-width="1.41359" stroke-miterlimit="10"/>
        <path d="M119.336 131.097C121.955 124.635 110.331 116.141 98.4359 119.527C98.4359 119.527 102.447 67.4135 111.848 60.8471C120.973 54.4754 123.17 84.4856 123.48 91.8139C123.469 91.8139 125.157 120.165 119.336 131.097Z" fill="#FFFAF1"/>
        <path d="M118.313 132.668C124.074 127.025 112.161 115.54 98.4359 119.527C89.8493 120.983 56.4695 128.752 53.3316 130.532C50.266 132.025 41.4132 136.887 40.2862 138.363C38.8646 140.225 38.6475 145.152 38.7354 145.801C38.8232 146.45 39.989 149.828 39.989 149.828C39.989 149.828 42.2248 149.577 41.9405 146.921C41.5993 143.764 44.1737 142.785 45.8952 141.938C46.6138 141.588 48.48 141.732 48.8082 142.92C49.1365 144.108 46.4147 145.547 45.965 146.408C45.2955 147.712 46.0709 149.17 46.0865 149.201C46.102 149.232 50.2376 146.769 51.0363 146.306C51.7704 145.88 55.2211 141.484 56.684 137.609C56.6944 137.607 108.199 142.59 118.313 132.668Z" fill="#CF8585"/>
        <path d="M111.921 32.8066C110.952 30.2359 106.935 16.9338 113.443 11.1885C119.952 5.44328 128.536 -0.451525 138.922 0.465571C149.307 1.38267 152.202 16.4795 158.088 18.9062C163.973 21.333 171.154 18.4548 177.939 25.1143C184.724 31.7738 177.68 42.2569 184.595 47.8526C191.509 53.4483 198.172 46.3683 205.1 56.256C213.04 67.5942 201.442 80.6959 212.714 81.8247C225.178 83.0719 232.697 106.109 227.347 121.401H162.422C120.968 114.408 111.921 32.8066 111.921 32.8066Z" fill="#000166"/>
        <path d="M116.395 10.3927C122.723 4.27216 130.079 0.20026 140.485 0.756161C150.891 1.31206 154.893 13.968 160.848 16.2367C166.803 18.5055 174.312 15.3027 181.299 21.8804C188.285 28.4581 181.557 40.1433 188.652 45.6261C195.748 51.1089 202.176 43.6198 209.403 53.5047C217.692 64.84 206.503 77.7724 217.804 78.5231C230.298 79.3555 238.466 96.6025 232.19 116.158" stroke="#FFCD10" stroke-width="1.41359" stroke-miterlimit="10"/>
        <path d="M112.42 146.865C112.42 146.865 108.739 114.115 106.792 112.399C102.422 108.545 98.9451 103.017 100.767 95.3836C101.801 91.0746 110.111 62.512 111.882 60.6976C113.652 58.8831 125.271 54.3484 125.271 54.3484H158.098C161.835 55.7086 173.57 60.3166 176.375 65.0065C190.074 87.9085 194.455 124.643 194.455 124.643H177.421C177.421 124.643 169.223 104.555 166.307 104.326C163.391 104.097 157.93 146.583 157.93 146.583C157.93 146.583 139.255 152.241 112.42 146.865Z" fill="#FFFAF1"/>
        <path d="M112.161 146.865C112.161 146.865 108.48 114.115 106.534 112.399C102.163 108.544 98.4281 102.734 100.25 95.1012" stroke="white" stroke-width="1.41359" stroke-miterlimit="10"/>
        <path d="M135.442 58.3273C135.442 58.3273 120.321 89.8246 124.069 149.687" stroke="white" stroke-width="1.41359" stroke-miterlimit="10"/>
        <path d="M133.635 84.9937C134.736 84.9937 135.628 84.0196 135.628 82.818C135.628 81.6165 134.736 80.6424 133.635 80.6424C132.535 80.6424 131.642 81.6165 131.642 82.818C131.642 84.0196 132.535 84.9937 133.635 84.9937Z" stroke="white" stroke-width="1.41359" stroke-miterlimit="10"/>
        <path d="M130.903 100.948C132.004 100.948 132.896 99.9741 132.896 98.7725C132.896 97.5709 132.004 96.5969 130.903 96.5969C129.803 96.5969 128.91 97.5709 128.91 98.7725C128.91 99.9741 129.803 100.948 130.903 100.948Z" stroke="white" stroke-width="1.41359" stroke-miterlimit="10"/>
        <path d="M129.443 116.959C130.543 116.959 131.435 115.985 131.435 114.784C131.435 113.582 130.543 112.608 129.443 112.608C128.342 112.608 127.45 113.582 127.45 114.784C127.45 115.985 128.342 116.959 129.443 116.959Z" stroke="white" stroke-width="1.41359" stroke-miterlimit="10"/>
        <path d="M192.566 133.574C184.132 143.256 129.604 130.309 129.604 130.309C129.604 130.309 126.76 135.214 123.431 135.389C120.102 135.564 116.951 134.28 115.261 135.837C113.57 137.395 111.864 140.107 110.541 140.386C108.97 140.737 107.357 140.811 105.764 140.606C106.33 138.904 106.98 137.236 107.713 135.612C106.708 136.501 105.459 138.132 104.728 138.812C104.423 139.121 104.032 139.309 103.618 139.347C103.203 139.384 102.79 139.268 102.443 139.018C102.443 139.018 104.627 135.377 105.488 134.404C106.348 133.43 108.987 130.987 110.45 130.431C112.18 129.624 122.304 124.209 127.357 123.311C132.716 122.363 176.109 119.175 176.109 119.175C191.804 119.163 199.648 125.447 192.566 133.574Z" fill="#FFA4A4"/>
        <path d="M107.395 140.039C107.395 140.039 110.528 134.094 111.577 133.464C113.425 132.353 115.837 130.891 115.837 130.891" stroke="#FFB5B5" stroke-width="0.848156" stroke-miterlimit="10" stroke-linecap="round"/>
        <path d="M109.561 139.932C109.561 139.932 112.329 135.042 113.379 134.413C115.227 133.301 117.639 131.839 117.639 131.839" stroke="#FFB5B5" stroke-width="0.848156" stroke-miterlimit="10" stroke-linecap="round"/>
        <path d="M138.564 32.3636C138.564 32.3636 143.132 47.9994 158.087 54.3485C158.087 54.3485 137.109 64.3265 125.261 54.3485V32.8151L138.564 32.3636Z" fill="#FFA4A4"/>
        <path d="M128.29 56.3831C127.222 55.8204 126.21 55.1386 125.271 54.3485V32.8151L138.564 32.3636C138.564 32.3636 138.694 32.8039 138.978 33.5686C140.335 40.1688 136.665 53.8632 128.29 56.3831Z" fill="#CF8585"/>
        <path d="M138.216 34.7706C138.079 39.912 129.216 52.0064 124.369 52.0064C120.353 52.0064 112.854 38.7804 111.908 32.8179C110.939 26.6833 111.921 15.8023 119.934 15.6499C124.886 15.5568 127.43 20.6361 128.916 26.5252C130.725 33.6334 136.277 32.0391 136.277 32.0391C136.277 32.0391 137.867 28.0885 140.082 30.0638C142.297 32.0391 138.216 34.7706 138.216 34.7706Z" fill="#FFA4A4"/>
        <path d="M9.46521 352.54L22.3891 158.164L35.313 352.949" stroke="#FFCD10" stroke-width="1.41359" stroke-miterlimit="10"/>
        <path d="M8.33044 158.164H178.494C179.557 158.164 180.577 157.703 181.329 156.883C182.081 156.063 182.504 154.95 182.506 153.79V153.79C182.506 152.628 182.083 151.514 181.331 150.693C180.578 149.872 179.558 149.41 178.494 149.41H8.33044V158.164Z" fill="white"/>
        <path d="M8.33044 158.164H178.494C179.557 158.164 180.577 157.703 181.329 156.883C182.081 156.063 182.504 154.95 182.506 153.79V153.79C182.506 152.628 182.083 151.514 181.331 150.693C180.578 149.872 179.558 149.41 178.494 149.41H8.33044" stroke="#FFCD10" stroke-width="1.41359" stroke-miterlimit="10"/>
        <path d="M75.7336 83.3344H7.06388C6.30723 83.335 5.56191 83.5351 4.89122 83.9175C4.22053 84.2999 3.64429 84.8534 3.21144 85.5309C2.77858 86.2084 2.50191 86.99 2.4049 87.8092C2.3079 88.6284 2.39344 89.4611 2.65425 90.2366L19.9722 141.594H100.385L82.4721 88.4673C81.9649 86.9618 81.0468 85.6624 79.8418 84.7446C78.6368 83.8267 77.2029 83.3345 75.7336 83.3344V83.3344Z" stroke="#000129" stroke-width="0.282719" stroke-miterlimit="10"/>
        <path d="M76.3515 83.3344H7.4285C4.24147 83.3344 2.0289 87.0225 3.13002 90.5018L18.1217 138.024C18.4207 139.046 19.0054 139.94 19.7935 140.58C20.5816 141.22 21.5336 141.575 22.5158 141.594H99.6145L82.9246 88.6676C81.9114 85.462 79.2878 83.3344 76.3515 83.3344Z" fill="white"/>
        <path d="M73.5081 86.8926H4.58509C3.84707 86.8924 3.11993 87.0869 2.46559 87.4596C1.81125 87.8322 1.24909 88.372 0.826969 89.0329C0.404848 89.6938 0.13527 90.4563 0.0411855 91.2554C-0.0528985 92.0546 0.0312987 92.8667 0.286609 93.6227L15.2783 138.241C15.6081 139.224 16.2064 140.073 16.9923 140.672C17.7781 141.272 18.7137 141.594 19.6724 141.594H96.7711L80.0812 91.8985C79.5862 90.4302 78.6906 89.163 77.5152 88.2679C76.3399 87.3727 74.9413 86.8927 73.5081 86.8926Z" fill="#D1D1FF"/>
        <path d="M19.812 141.594H151.341C153.175 141.594 154.933 142.389 156.23 143.805C157.527 145.22 158.255 147.14 158.255 149.142H26.7263C24.8925 149.142 23.1338 148.347 21.8371 146.931C20.5405 145.516 19.812 143.596 19.812 141.594V141.594Z" fill="white" stroke="#3D3EFF" stroke-width="1.69631" stroke-miterlimit="10"/>
        <path d="M75.7336 83.3344H7.06388C6.30723 83.335 5.56191 83.5351 4.89122 83.9175C4.22053 84.2999 3.64429 84.8534 3.21144 85.5309C2.77858 86.2084 2.50191 86.99 2.4049 87.8092C2.3079 88.6284 2.39344 89.4611 2.65425 90.2366L19.9722 141.594H100.385L82.4721 88.4673C81.9649 86.9618 81.0468 85.6624 79.8418 84.7446C78.6368 83.8267 77.2029 83.3345 75.7336 83.3344V83.3344Z" stroke="#3D3EFF" stroke-width="1.41359" stroke-miterlimit="10"/>
        <path d="M50.4565 120.623C52.0832 118.65 51.5951 115.275 49.3662 113.084C47.1373 110.893 44.0117 110.716 42.385 112.688C40.7583 114.661 41.2465 118.036 43.4753 120.227C45.7042 122.418 48.8298 122.595 50.4565 120.623Z" fill="#FFCD10"/>
        <path d="M52.0364 118.826C53.6631 116.854 53.1749 113.479 50.9461 111.288C48.7172 109.097 45.5916 108.92 43.9649 110.892C42.3382 112.864 42.8263 116.239 45.0552 118.43C47.2841 120.621 50.4096 120.798 52.0364 118.826Z" stroke="#3D3EFF" stroke-width="1.41359" stroke-miterlimit="10"/>
    </g>
    <defs>
        <clipPath id="clip0_2816_5695">
            <rect width="235" height="353" fill="white"/>
        </clipPath>
    </defs>
</svg>
