<svg id="ejrK5nPNwEu1" xmlns="http://www.w3.org/2000/svg" xmlns:xlink="http://www.w3.org/1999/xlink" viewBox="0 0 283.460000 144.120000" shape-rendering="geometricPrecision" text-rendering="geometricPrecision"><style><![CDATA[#ejrK5nPNwEu4_tr {animation: ejrK5nPNwEu4_tr__tr 3000ms linear 1 normal forwards}@keyframes ejrK5nPNwEu4_tr__tr { 0% {transform: translate(114.282811px,114.185120px) rotate(-180deg);animation-timing-function: cubic-bezier(0.420000,0,0.580000,1)} 16.666667% {transform: translate(114.282811px,114.185120px) rotate(0deg);animation-timing-function: cubic-bezier(0.420000,0,0.580000,1)} 33.333333% {transform: translate(114.282811px,114.185120px) rotate(180deg);animation-timing-function: cubic-bezier(0.420000,0,0.580000,1)} 50% {transform: translate(114.282811px,114.185120px) rotate(360deg)} 100% {transform: translate(114.282811px,114.185120px) rotate(360deg)}} #ejrK5nPNwEu4 {animation: ejrK5nPNwEu4_c_o 3000ms linear 1 normal forwards}@keyframes ejrK5nPNwEu4_c_o { 0% {opacity: 0} 16.666667% {opacity: 1} 33.333333% {opacity: 0} 50% {opacity: 1} 100% {opacity: 1}} #ejrK5nPNwEu5_to {animation: ejrK5nPNwEu5_to__to 3000ms linear 1 normal forwards}@keyframes ejrK5nPNwEu5_to__to { 0% {transform: translate(114.282566px,175px);animation-timing-function: cubic-bezier(0.420000,0,0.580000,1)} 16.666667% {transform: translate(114.282566px,113px)} 100% {transform: translate(114.282566px,113px)}} #ejrK5nPNwEu5 {animation: ejrK5nPNwEu5_c_o 3000ms linear 1 normal forwards}@keyframes ejrK5nPNwEu5_c_o { 0% {opacity: 0} 16.666667% {opacity: 1} 100% {opacity: 1}} #ejrK5nPNwEu6 {animation: ejrK5nPNwEu6_c_o 3000ms linear 1 normal forwards}@keyframes ejrK5nPNwEu6_c_o { 0% {opacity: 0} 33.333333% {opacity: 0} 50% {opacity: 1} 100% {opacity: 1}}]]></style><g id="ejrK5nPNwEu2" clip-path="url(#ejrK5nPNwEu7)"><g id="ejrK5nPNwEu3"><g id="ejrK5nPNwEu4_tr" transform="translate(114.282811,114.185120) rotate(-180)"><path id="ejrK5nPNwEu4" d="M219.280000,69.700000C198.161963,19.659067,144.703955,-8.566667,91.470686,2.216906C38.237416,13.000479,-0.021459,59.805490,0,114.120000L14.200000,114.120000C14.748183,59.322913,59.325171,15.189637,114.125000,15.189637C168.924829,15.189637,213.501817,59.322913,214.050000,114.120000L228.250000,114.120000C228.267405,98.858789,225.206365,83.750857,219.250000,69.700000" transform="translate(-114.282811,-114.120000)" opacity="0" fill="rgb(69,219,204)" stroke="none" stroke-width="1"/></g><g id="ejrK5nPNwEu5_to" transform="translate(114.282566,175)"><path id="ejrK5nPNwEu5" d="M77,112.940000C81.260172,110.148350,83.876955,105.441879,84,100.350000C84,91.350000,75.500000,84.050000,65,84.050000C54.500000,84.050000,46,91.350000,46,100.350000L53.700000,100.350000C53.757035,97.981487,54.818734,95.749009,56.620000,94.210000C61.435456,90.130445,68.494544,90.130445,73.310000,94.210000C75.159021,95.710050,76.232875,97.964028,76.232875,100.345000C76.232875,102.725972,75.159021,104.979950,73.310000,106.480000C71.013992,108.494142,68.054015,109.587660,65,109.550000L60.810000,109.550000L60.810000,116.650000L65,116.650000C68.377256,116.597554,71.655666,117.790026,74.210000,120C76.276300,121.660856,77.478203,124.168955,77.478203,126.820000C77.478203,129.471045,76.276300,131.979144,74.210000,133.640000C68.860588,138.119494,61.069412,138.119494,55.720000,133.640000C54.057948,132.212608,52.938457,130.256146,52.550000,128.100000L44.740000,128.100000C45.510000,137.050000,54.270000,144.100000,64.970000,144.100000C76.170000,144.100000,85.250000,136.360000,85.250000,126.810000C85.250000,121.120000,82.020000,116.070000,77.030000,112.920000M127.300000,123.920000C127.340506,129.303308,124.129393,134.179289,119.167837,136.268453C114.206282,138.357616,108.474486,137.247228,104.652031,133.456387C100.829575,129.665546,99.671623,123.943170,101.719510,118.964435C103.767396,113.985700,108.616542,110.734203,114,110.730000C117.523807,110.724692,120.905251,112.120115,123.399773,114.609010C125.894296,117.097906,127.297351,120.476190,127.300000,124M134.400000,124C134.378859,118.615340,132.216072,113.460375,128.388865,109.672566C124.561658,105.884757,119.384590,103.775424,114,103.810000C113.480000,103.810000,113,103.810000,112.450000,103.870000L126.450000,84.990000L117.600000,84.990000L97.780000,111.780000C95.070603,115.276096,93.606481,119.576954,93.620000,124C93.620000,135.261086,102.748914,144.390000,114.010000,144.390000C125.271086,144.390000,134.400000,135.261086,134.400000,124M151.830000,107.800000L151.830000,92.090000L180.050000,92.090000L180.050000,85L144.730000,85L144.730000,117.600000L151.830000,117.600000C154.859840,112.152610,161.293651,109.575313,167.246365,111.424414C173.199080,113.273514,177.040258,119.042546,176.450399,125.247871C175.860539,131.453195,171.001203,136.395182,164.806708,137.089605C158.612214,137.784028,152.779224,134.040685,150.830000,128.120000L143.490000,128.120000C145.567410,138.652076,155.465291,145.761746,166.109372,144.367545C176.753453,142.973344,184.486347,133.554331,183.781154,122.842517C183.075962,112.130703,174.174993,103.806749,163.440000,103.820000C159.240870,103.818293,155.162838,105.226940,151.860000,107.820000" transform="translate(-114.282566,-115)" opacity="0" fill="rgb(128,130,135)" stroke="none" stroke-width="1"/></g><path id="ejrK5nPNwEu6" d="M274.470000,122.840000L272.070000,122.840000L272.070000,142.420000L274.470000,142.420000L274.470000,136.470000L280.020000,142.420000L283.310000,142.420000L277.380000,136.050000L283.460000,129.520000L280.180000,129.520000L274.470000,135.640000ZM258.930000,129.190000L258.930000,129.190000ZM255.560000,129.520000L253.160000,129.520000L253.160000,142.420000L255.560000,142.420000L255.560000,135.140000C255.545495,134.161864,255.902913,133.214705,256.560000,132.490000C257.169617,131.819828,258.034041,131.438464,258.940000,131.440000C259.900161,131.460984,260.812631,131.862652,261.476560,132.556589C262.140488,133.250525,262.501453,134.179850,262.480000,135.140000L262.480000,142.420000L264.890000,142.420000L264.890000,135.140000C264.892655,133.562882,264.268008,132.049450,263.153754,130.933320C262.039500,129.817190,260.527120,129.189998,258.950000,129.190000C257.658057,129.181217,256.425504,129.731855,255.570000,130.700000ZM239.380000,142.750000L239.380000,142.750000ZM239.380000,129.190000L239.380000,129.190000ZM235,136C234.961003,133.540529,236.920610,131.513812,239.380000,131.470000C241.765202,131.628573,243.618836,133.609533,243.618836,136C243.618836,138.390467,241.765202,140.371427,239.380000,140.530000C236.920610,140.486188,234.961003,138.459471,235,136M232.590000,136C232.595507,139.742207,235.627793,142.774493,239.370000,142.780000C240.967060,142.791378,242.492445,142.117878,243.560000,140.930000L243.560000,142.450000L246,142.450000L246,129.550000L243.600000,129.550000L243.600000,131C242.532445,129.812122,241.007060,129.138622,239.410000,129.150000C235.667793,129.155507,232.635507,132.187793,232.630000,135.930000M220.630000,129.150000L220.630000,129.150000ZM216.450000,136C216.387501,134.840822,216.796341,133.705620,217.583574,132.852470C218.370807,131.999320,219.469544,131.500713,220.630000,131.470000C223.131850,131.470000,225.160000,133.498150,225.160000,136C225.160000,138.501850,223.131850,140.530000,220.630000,140.530000C219.469544,140.499287,218.370807,140.000680,217.583574,139.147530C216.796341,138.294380,216.387501,137.159178,216.450000,136M216.450000,122.870000L214.050000,122.870000L214.050000,142.450000L216.450000,142.450000L216.450000,140.900000C217.517555,142.087878,219.042940,142.761378,220.640000,142.750000C224.384491,142.750000,227.420000,139.714491,227.420000,135.970000C227.420000,132.225509,224.384491,129.190000,220.640000,129.190000C219.042940,129.178622,217.517555,129.852122,216.450000,131.040000Z" opacity="0" fill="rgb(128,130,135)" stroke="none" stroke-width="1"/></g><clipPath id="ejrK5nPNwEu7"><rect id="ejrK5nPNwEu8" width="283.460000" height="144.120000" rx="0" ry="0" fill="none" stroke="none" stroke-width="1"/></clipPath></g></svg>