<svg width="163" height="54" viewBox="0 0 163 54" xmlns="http://www.w3.org/2000/svg"><title>Page 1</title><g fill="none" fill-rule="evenodd"><path fill="#35B34C" d="M0 54h163V0H0z"/><g fill="#FFF"><path d="M30.046 29.94l1.129-1.5a4.988 4.988 0 0 0 3.61 1.533c1.644 0 2.277-.775 2.277-1.516 0-2.308-6.64-.874-6.64-4.912 0-1.83 1.643-3.231 4.158-3.231 1.763 0 3.217.56 4.261 1.55l-1.13 1.434c-.906-.874-2.121-1.27-3.319-1.27-1.164 0-1.916.56-1.916 1.369 0 2.06 6.64.79 6.64 4.878 0 1.829-1.352 3.413-4.416 3.413-2.104 0-3.627-.726-4.654-1.748M42.663 31.49V20.496h7.82v1.698h-5.818v2.834h5.698v1.697h-5.698v3.067h5.817v1.698zM62.21 31.49l-5.954-7.864v7.864h-2.002V20.496h2.054l5.834 7.615v-7.615h2.002V31.49zM67.558 29.94l1.129-1.5a4.988 4.988 0 0 0 3.61 1.533c1.643 0 2.276-.775 2.276-1.516 0-2.308-6.64-.874-6.64-4.912 0-1.83 1.643-3.231 4.159-3.231 1.763 0 3.217.56 4.26 1.55l-1.129 1.434c-.907-.874-2.12-1.27-3.32-1.27-1.163 0-1.915.56-1.915 1.369 0 2.06 6.64.79 6.64 4.878 0 1.829-1.353 3.413-4.416 3.413-2.105 0-3.628-.726-4.654-1.748M89.295 26c0-2.273-1.49-3.972-3.781-3.972-2.31 0-3.782 1.699-3.782 3.973 0 2.258 1.472 3.972 3.782 3.972 2.291 0 3.78-1.714 3.78-3.972m-9.615 0c0-3.28 2.412-5.687 5.835-5.687 3.405 0 5.834 2.406 5.834 5.687 0 3.28-2.429 5.687-5.834 5.687-3.423 0-5.835-2.407-5.835-5.687M102.94 31.49l-5.954-7.864v7.864h-2.002V20.496h2.054l5.835 7.615v-7.615h2.001V31.49zM109.022 31.49V20.496h7.82v1.698h-5.817v2.834h5.698v1.697h-5.698v3.067h5.817v1.698zM129.734 26c0-2.273-1.49-3.972-3.782-3.972-2.31 0-3.781 1.699-3.781 3.973 0 2.258 1.47 3.972 3.781 3.972 2.292 0 3.782-1.714 3.782-3.972m-9.617 0c0-3.28 2.413-5.687 5.835-5.687 3.405 0 5.835 2.406 5.835 5.687 0 3.28-2.43 5.687-5.835 5.687-3.422 0-5.835-2.407-5.835-5.687M26.36 33.372c-1.645-1.92-2.632-4.686-2.632-7.373 0-2.685.987-5.453 2.632-7.371l1.124.818c-1.158 2.067-1.783 3.917-1.783 6.553 0 2.603.625 4.487 1.783 6.542l-1.124.831zM20.34 34.625l1.108-.82c-1.485-2.666-2.094-4.936-2.094-7.804 0-3.336.835-5.551 2.094-7.821l-1.107-.805C18.448 19.649 17.32 22.86 17.32 26c0 3.141 1.127 6.352 3.02 8.624M135.64 18.628c1.645 1.92 2.632 4.687 2.632 7.373 0 2.685-.987 5.453-2.632 7.371l-1.125-.818c1.159-2.066 1.783-3.917 1.783-6.553 0-2.603-.624-4.487-1.783-6.542l1.125-.831zM141.66 17.375l-1.108.82c1.485 2.666 2.092 4.936 2.092 7.805 0 3.335-.833 5.55-2.092 7.82l1.106.805c1.894-2.274 3.022-5.485 3.022-8.625 0-3.143-1.127-6.353-3.02-8.625"/></g></g></svg>