<svg width="189" height="177" viewBox="0 0 189 177" fill="none" xmlns="http://www.w3.org/2000/svg">
    <ellipse cx="98.6547" cy="88.0197" rx="89.6547" ry="88.0197" fill="#F8FAFA"/>
    <path d="M132.421 118.628C149.964 100.901 152.675 73.9628 138.474 58.4598C124.274 42.9568 98.5408 44.7595 80.9975 62.4863C63.4541 80.2131 60.744 107.151 74.9442 122.654C89.1444 138.157 114.878 136.354 132.421 118.628Z" fill="#F3F3FF"/>
    <path d="M126 106.675C143.711 88.6344 146.528 61.5105 132.292 46.0922C118.055 30.6739 92.1564 32.7999 74.4451 50.8406C56.7338 68.8814 53.9169 96.0053 68.1534 111.424C82.3899 126.842 108.289 124.716 126 106.675Z" stroke="#FFCD10" stroke-width="5.9625" stroke-linejoin="round"/>
    <path d="M130.051 75.1221C130.035 91.6043 116.976 107.455 100.898 110.548" stroke="#FFB5B5" stroke-width="5.9625" stroke-linejoin="round"/>
    <path d="M73.3144 121.299L46.01 159.116C45.4439 160.08 45.2871 161.195 45.5712 162.235C45.8554 163.276 46.5593 164.166 47.5411 164.724C48.0118 164.996 48.5411 165.173 49.0962 165.244C49.6512 165.316 50.22 165.28 50.767 165.14C51.3141 164.999 51.8277 164.757 52.2758 164.428C52.7239 164.099 53.097 163.69 53.3717 163.227L80.6754 125.405C81.2416 124.441 81.3984 123.326 81.1142 122.285C80.8301 121.245 80.1261 120.355 79.1443 119.797C78.6736 119.525 78.144 119.347 77.5886 119.276C77.0333 119.204 76.4641 119.24 75.9169 119.381C75.3696 119.522 74.856 119.765 74.4082 120.095C73.9604 120.425 73.588 120.835 73.3144 121.299Z" fill="white" stroke="#3D3EFF" stroke-width="5.9625" stroke-miterlimit="10"/>
</svg>
