<svg width="180" height="180" viewBox="0 0 180 180" fill="none" xmlns="http://www.w3.org/2000/svg">
    <circle cx="89.6547" cy="89.6547" r="89.6547" fill="#FFFAF1"/>
    <circle cx="100.028" cy="101.026" r="52.8391" fill="#F3F3FF"/>
    <path d="M103.901 43.3532C105.384 42.4832 105.88 40.576 105.01 39.0935L90.8318 14.9342C89.9618 13.4516 88.0546 12.9551 86.5721 13.8252C85.0895 14.6953 84.593 16.6024 85.4631 18.0849L98.0661 39.5599L76.5912 52.1629C75.1087 53.033 74.6122 54.9402 75.4822 56.4227C76.3523 57.9052 78.2594 58.4017 79.742 57.5317L103.901 43.3532ZM41.1125 89.5418C41.1125 63.3864 62.6127 42.1125 89.2225 42.1125V35.8875C59.2535 35.8875 34.8875 59.8702 34.8875 89.5418H41.1125ZM89.2225 42.1125C93.4849 42.1125 97.6133 42.6582 101.542 43.681L103.11 37.6568C98.6736 36.5018 94.0183 35.8875 89.2225 35.8875V42.1125Z" fill="#FFCD10"/>
    <path d="M129.47 125.533C129.617 127.246 131.124 128.515 132.837 128.369L160.747 125.978C162.46 125.832 163.73 124.324 163.583 122.612C163.436 120.899 161.929 119.629 160.216 119.776L135.407 121.901L133.282 97.0914C133.136 95.3787 131.628 94.1092 129.916 94.2559C128.203 94.4025 126.933 95.9099 127.08 97.6226L129.47 125.533ZM114.026 48.9418C137.981 60.278 148.211 88.8872 136.875 112.842L142.501 115.505C155.308 88.4424 143.752 56.1218 116.689 43.315L114.026 48.9418ZM136.875 112.842C135.058 116.682 132.799 120.165 130.191 123.262L134.952 127.272C137.903 123.769 140.453 119.833 142.501 115.505L136.875 112.842Z" fill="#FFA4A4"/>
    <path d="M43.3362 104.329C41.8331 103.495 39.9385 104.038 39.1045 105.541L25.5144 130.036C24.6805 131.539 25.223 133.434 26.7261 134.268C28.2292 135.102 30.1238 134.559 30.9578 133.056L43.0379 111.283L64.8113 123.363C66.3144 124.197 68.209 123.654 69.043 122.151C69.8769 120.648 69.3344 118.753 67.8313 117.919L43.3362 104.329ZM115.513 134.25C92.7391 147.803 63.2898 140.329 49.7361 117.555L44.3868 120.738C59.6987 146.467 92.9684 154.911 118.697 139.599L115.513 134.25ZM49.7361 117.555C47.5637 113.905 45.9331 110.087 44.8184 106.194L38.8339 107.908C40.0949 112.311 41.9378 116.624 44.3868 120.738L49.7361 117.555Z" fill="#3D3EFF"/>
</svg>
