<svg width="191" height="185" viewBox="0 0 191 185" fill="none" xmlns="http://www.w3.org/2000/svg">
    <circle cx="89.6547" cy="89.6547" r="89.6547" fill="#FFFAFA"/>
    <path d="M48.4956 46.3296H131.035C142.401 46.3296 153.122 54.1325 154.964 63.6989L166.965 125.539C168.822 135.132 179.548 142.909 190.893 142.909H108.38C97.0141 142.909 86.2981 135.106 84.4514 125.539L72.565 64.3491C70.9576 56.026 62.8477 49.7837 53.2918 48.041L48.7037 47.3908L48.4956 46.3296Z" fill="#F3F3FF"/>
    <path d="M36 38H118.539C129.905 38 140.627 45.8029 142.468 55.3693L154.469 117.21C156.326 126.802 167.052 134.579 178.398 134.579H95.8847C84.5185 134.579 73.8025 126.776 71.9558 117.21L60.0694 56.0195C58.462 47.6964 50.3521 41.4541 40.7962 39.7114L36.2081 39.0612L36 38Z" stroke="#FFCD10" stroke-width="6.2625" stroke-miterlimit="10"/>
    <path d="M55.4018 119.713L50.9176 134.66C50.8 135.052 51.2551 135.364 51.5782 135.113L65.1263 124.575" stroke="#FFB5B5" stroke-width="6.2625"/>
    <path d="M50.9176 134.752L51.8314 131.706L53.7811 133.491L51.5782 135.205C51.2551 135.456 50.8 135.144 50.9176 134.752Z" stroke="#3D3EFF" stroke-width="6.2625"/>
    <path d="M93.1523 64.9863L54.9292 118.927L65.3961 124.913L103.618 70.9652C104.409 69.5888 104.618 67.9911 104.204 66.4944C103.79 64.9976 102.784 63.7132 101.388 62.9004C100.718 62.5043 99.9666 62.2435 99.1797 62.1343C98.3927 62.025 97.5875 62.0697 96.8145 62.2655C96.0414 62.4613 95.3172 62.8041 94.687 63.2723C94.0568 63.7404 93.5344 64.324 93.1523 64.9863Z" fill="white" stroke="#3D3EFF" stroke-width="6.2625" stroke-miterlimit="10"/>
</svg>
