<?xml version="1.0" encoding="UTF-8"?>
<svg width="370px" height="96px" viewBox="0 0 370 96" version="1.1" xmlns="http://www.w3.org/2000/svg" xmlns:xlink="http://www.w3.org/1999/xlink">
    <!-- Generator: Sketch 51.3 (57544) - http://www.bohemiancoding.com/sketch -->
    <title>6</title>
    <desc>Created with Sketch.</desc>
    <defs></defs>
    <g id="6" stroke="none" stroke-width="1" fill="none" fill-rule="evenodd">
        <path d="M41.9042171,5.6929869 C37.5026649,3.7291221 32.0569007,3.47381967 25.5669244,4.92707963 L4.50093719,9.7385484 C3.99935606,9.8474709 3.56536865,10.1565501 3.3014151,10.5928296 C3.02083575,11.0156601 2.93101351,11.5352437 3.05357995,12.0264509 L13.413089,56.5276274 C13.6767132,57.5370952 14.6908289,58.1665191 15.7229125,57.9612487 L30.0477838,54.6914138 C31.0669236,54.4302915 31.7023781,53.4258001 31.495141,52.4035113 L28.4318987,39.2456171 L33.2993809,38.0967562 C39.8422287,36.6042189 44.6535349,34.090472 47.7332996,30.5555153 C50.8130644,27.0205587 51.7151843,22.4971234 50.4396594,16.9852095 C49.1443077,11.4209259 46.2991603,7.65685171 41.9042171,5.6929869 Z" id="Shape" fill="#FF431D" fill-rule="nonzero" transform="translate(27.000000, 31.000000) rotate(23.000000) translate(-27.000000, -31.000000) "></path>
        <path d="M98.0386542,60.0751891 C100.310402,58.596714 102.196198,56.5877812 103.536638,54.2182037 C104.90535,51.7265681 105.581393,48.9076893 105.493216,46.059907 C105.434519,40.6473809 103.477941,36.4332486 99.6234823,33.4175102 C95.7690239,30.4017718 90.4699588,28.9301178 83.7262871,29.0025482 L62.8789499,29.2198394 C62.3758363,29.2253119 61.8961694,29.4354018 61.5484769,29.8025749 C61.1858082,30.1600493 60.9872544,30.6540431 61.0006351,31.1655833 L61.4702138,77.1029173 C61.4747898,77.6130667 61.6870636,78.0988429 62.0571872,78.446172 C62.4068698,78.8128457 62.8934807,79.0136632 63.397443,78.9992769 L77.2010999,78.8511238 C78.2510072,78.8086904 79.0802555,77.9365916 79.0794146,76.8757493 L78.9424542,63.2950496 L81.8284065,63.2950496 L88.0307584,76.8066112 C88.2554622,77.3265464 88.6134198,77.7765872 89.0677446,78.1103583 C89.6333582,78.5276192 90.3249528,78.7335996 91.0243225,78.6930938 L105.463867,78.5449407 C105.875938,78.5489867 106.270451,78.3767475 106.549768,78.0708508 C106.844052,77.7802745 107.00682,77.3801643 106.999781,76.9646411 C106.986431,76.6916233 106.912903,76.4250542 106.784557,76.1843682 L98.0386542,60.0751891 Z" id="Shape" fill="#FF431D" fill-rule="nonzero" transform="translate(84.000000, 54.000000) rotate(-19.000000) translate(-84.000000, -54.000000) "></path>
        <path d="M161.608269,11.3111936 L126.495629,1.06220561 C125.469908,0.801186531 124.418052,1.38428943 124.107216,2.38623755 L111.065095,46.147945 C110.798661,47.154488 111.372757,48.1917777 112.373271,48.5115872 L148.050806,58.9174975 C148.537346,59.0678728 149.065182,59.0110171 149.507639,58.7605752 C149.961434,58.5270913 150.298286,58.1192588 150.439219,57.6326961 L153.293422,48.0800509 C153.436957,47.5934869 153.37622,47.0702041 153.124944,46.6285196 C152.888093,46.1801723 152.476356,45.8471126 151.985245,45.706601 L130.905769,39.5572083 L132.174303,35.2908831 L151.202322,40.8420096 C151.692112,40.9928386 152.223164,40.936023 152.669065,40.6850873 C153.120636,40.4489054 153.456598,40.0421512 153.600645,39.5572083 L156.216997,30.7303287 C156.369407,30.2456185 156.311996,29.7200735 156.058431,29.2787974 C155.819774,28.8319091 155.408757,28.4994318 154.918732,28.3568788 L135.890713,22.8057523 L137.159248,18.5394272 L157.693651,24.5318977 C158.180191,24.682273 158.708027,24.6254173 159.150484,24.3749754 C159.604279,24.1414915 159.941131,23.733659 160.082064,23.2470963 L162.936267,13.6944511 C163.063094,13.2217664 162.99912,12.7187929 162.757879,12.291958 C162.536899,11.8152441 162.117281,11.4572562 161.608269,11.3111936 Z" id="Shape" fill="#FF431D" fill-rule="nonzero"></path>
        <path d="M210.57867,49.0942334 L170.373608,38.0728494 C169.884829,37.930274 169.359361,37.9988383 168.922553,38.262186 C168.474616,38.5090713 168.146418,38.9304269 168.014411,39.428101 L165.053075,50.579031 C164.811718,51.6123342 165.415077,52.6552591 166.425161,52.9507213 L177.806559,56.0797579 L169.268043,87.7886582 C169.12976,88.2834564 169.201263,88.8140086 169.465465,89.2535257 C169.710022,89.7057274 170.127404,90.0370498 170.620386,90.1703135 L184.331368,93.9271506 C184.820147,94.069726 185.345615,94.0011617 185.782422,93.737814 C186.23036,93.4909287 186.558558,93.0695731 186.690565,92.571899 L195.229082,60.8629987 L206.61048,63.9820703 C207.62858,64.2342949 208.664427,63.6392476 208.969677,62.6268187 L211.931013,51.4758887 C212.069295,50.9810905 211.997792,50.4505383 211.73359,50.0110212 C211.489033,49.5588195 211.071651,49.2274972 210.57867,49.0942334 Z" id="Shape" fill="#FF431D" fill-rule="nonzero"></path>
        <path d="M253.266577,43.3745908 C252.914481,43.0136543 252.429902,42.8169192 251.928756,42.831446 L232.398521,43.1573329 L231.861439,9.88724499 C231.856872,9.37717374 231.644983,8.89147191 231.275532,8.54419603 C230.921102,8.18069912 230.43245,7.98374792 229.927946,8.00105123 L215.866177,8.22818451 C215.3618,8.23280378 214.88152,8.447084 214.538121,8.82070611 C214.178682,9.17913762 213.983929,9.67330608 214.001039,10.1835058 L214.752954,56.1138052 C214.799988,57.1697501 215.660762,58.0010697 216.705977,57.999999 L252.133823,57.397602 C252.63796,57.4015315 253.120283,57.1899261 253.461879,56.8149558 C253.821318,56.4565243 254.016071,55.9623558 253.998961,55.4521561 L253.872014,44.7176398 C253.86241,44.2045794 253.643253,43.7184201 253.266577,43.3745908 Z" id="Shape" fill="#FF431D" fill-rule="nonzero" transform="translate(234.000000, 33.000000) rotate(-19.000000) translate(-234.000000, -33.000000) "></path>
        <path d="M314.844366,78.2597553 L290.69889,36.7831122 C290.377146,36.2038134 289.904534,35.7209881 289.330481,35.3851337 C288.651453,35.0092257 287.853888,34.903646 287.099379,35.0897862 L271.878309,37.9546575 C271.099626,38.0571332 270.389999,38.451676 269.895107,39.0572884 C269.48705,39.5759112 269.229847,40.1955835 269.151407,40.8490637 L262.021798,88.2326581 C261.992734,88.398778 261.992734,88.5686291 262.021798,88.734749 C262.191733,89.5747487 263.006741,90.1258561 263.856259,89.9752087 L276.836312,87.523824 C278.075935,87.429547 279.082507,86.4916271 279.255818,85.2693375 L280.059014,80.3468781 L295.121429,77.5115415 L297.679758,81.7842363 C298.292239,82.8533999 299.565554,83.3631524 300.753721,83.0148511 L313.723857,80.5634663 C314.574499,80.394819 315.131027,79.5791676 314.973274,78.7323114 C314.95401,78.5693435 314.910571,78.4101012 314.844366,78.2597553 Z" id="Shape" fill="#FF431D" fill-rule="nonzero" transform="translate(288.500000, 62.500000) rotate(-4.000000) translate(-288.500000, -62.500000) "></path>
        <path d="M367.942889,46.8369968 C367.879743,46.5651915 367.730654,46.3212715 367.517964,46.1417891 L347.487196,27.2718658 L353.80178,2.94952781 C353.876013,2.68319175 353.876013,2.4014777 353.80178,2.13514164 C353.693921,1.73128813 353.42109,1.39214675 353.050749,1.20157702 C352.690815,0.994832697 352.262535,0.94461608 351.864912,1.06253548 L336.755369,5.46220707 C335.603951,5.70501636 334.704348,6.60913179 334.46275,7.76632402 L330.757009,23.9547319 L326.804218,10.3584556 C326.673681,9.86359104 326.339386,9.44814235 325.885194,9.21632865 C325.446476,8.95721596 324.920506,8.89248851 324.432543,9.03756096 L311.378451,12.8413402 C310.376846,13.1610986 309.799391,14.2127134 310.064148,15.234841 L322.851427,59.5990239 C322.988476,60.0960052 323.324971,60.5133374 323.780333,60.7510824 C324.220092,61.0080175 324.746482,61.0691979 325.232984,60.9199185 L338.287075,57.1161392 C338.77947,56.9849474 339.192846,56.6489759 339.423503,56.1925062 C339.677381,55.7466335 339.741514,55.216672 339.601378,54.7226384 L335.36201,40.0239613 L348.010941,52.5774261 C348.36773,52.9322123 348.800329,53.2005466 349.275834,53.3620177 C349.918148,53.5714835 350.609915,53.5714835 351.25223,53.3620177 L366.836108,48.8233045 C367.236811,48.7126728 367.573461,48.4391224 367.765014,48.0685076 C367.995303,47.7018963 368.059954,47.2542834 367.942889,46.8369968 Z" id="Shape" fill="#FF431D" fill-rule="nonzero"></path>
    </g>
</svg>