<svg width="251" height="347" viewBox="0 0 251 347" fill="none" xmlns="http://www.w3.org/2000/svg">
    <g clip-path="url(#clip0)">
        <path d="M202.565 221.433C202.565 222.904 201.985 224.315 200.954 225.355C199.922 226.396 198.523 226.98 197.064 226.98H111.567C110.108 226.98 108.708 226.396 107.677 225.355C106.645 224.315 106.065 222.904 106.065 221.433C106.065 219.961 106.645 218.55 107.677 217.51C108.708 216.469 110.108 215.885 111.567 215.885H197.064C198.523 215.885 199.922 216.469 200.954 217.51C201.985 218.55 202.565 219.961 202.565 221.433Z" fill="white" stroke="#FFCD10" stroke-width="1.43388" stroke-miterlimit="10"/>
        <path d="M171.985 235.917H139.804C138.771 235.917 137.78 235.504 137.05 234.767C136.319 234.03 135.909 233.031 135.909 231.99V226.98H175.877V231.992C175.876 233.033 175.466 234.031 174.736 234.767C174.006 235.503 173.017 235.917 171.985 235.917Z" fill="white" stroke="#FFCD10" stroke-width="1.43388" stroke-miterlimit="10"/>
        <path d="M151.678 303.899H160.097V235.917H151.678V303.899Z" fill="white" stroke="#FFCD10" stroke-width="1.43388" stroke-miterlimit="10"/>
        <path d="M151.119 321.436H160.661C162.52 321.436 164.027 319.916 164.027 318.041V307.295C164.027 305.42 162.52 303.9 160.661 303.9H151.119C149.26 303.9 147.753 305.42 147.753 307.295V318.041C147.753 319.916 149.26 321.436 151.119 321.436Z" fill="white" stroke="#FFCD10" stroke-width="1.43388" stroke-miterlimit="10"/>
        <path d="M193.15 337.23C193.15 333.041 191.5 329.024 188.563 326.062C185.626 323.1 181.642 321.436 177.489 321.436H134.289C130.135 321.436 126.152 323.1 123.214 326.062C120.277 329.024 118.627 333.041 118.627 337.23" stroke="#3D3EFF" stroke-width="1.43388" stroke-miterlimit="10"/>
        <path d="M193.433 345.436C196.898 345.436 199.707 342.603 199.707 339.108C199.707 335.614 196.898 332.781 193.433 332.781C189.968 332.781 187.159 335.614 187.159 339.108C187.159 342.603 189.968 345.436 193.433 345.436Z" fill="white" stroke="#FFCD10" stroke-width="1.43388" stroke-miterlimit="10"/>
        <path d="M118.231 345.436C121.696 345.436 124.505 342.603 124.505 339.108C124.505 335.614 121.696 332.781 118.231 332.781C114.766 332.781 111.957 335.614 111.957 339.108C111.957 342.603 114.766 345.436 118.231 345.436Z" fill="white" stroke="#FFCD10" stroke-width="1.43388" stroke-miterlimit="10"/>
        <path d="M156.114 345.436C159.579 345.436 162.388 342.603 162.388 339.108C162.388 335.614 159.579 332.781 156.114 332.781C152.649 332.781 149.84 335.614 149.84 339.108C149.84 342.603 152.649 345.436 156.114 345.436Z" fill="white" stroke="#FFCD10" stroke-width="1.43388" stroke-miterlimit="10"/>
        <path d="M74.3271 312.445C71.5271 319.144 68.9773 324.636 67.0327 328.24C65.5859 330.919 63.0664 346.547 49.8199 340.251C49.3523 340.029 55.0459 338.547 56.842 325.618C57.471 321.086 58.0476 316.714 58.5721 312.504C63.7541 312.859 70.3278 312.642 74.3271 312.445Z" fill="#FFA4A4"/>
        <path d="M71.4638 346.547C71.4638 346.547 76.797 327.935 69.6649 325.094C67.3875 324.187 64.626 326.481 63.8888 334.315C63.2425 341.163 53.3213 342.226 52.3861 337.799C52.3861 337.799 40.2233 340.295 40.2233 346.547H71.4638Z" fill="#303083"/>
        <path d="M77.9275 312.235C77.9275 312.235 63.1957 313.297 55.4475 312.185C55.4475 312.185 45.1605 203.962 46.698 192.828C48.5491 179.433 92.7666 167.561 115.626 163.797L119.837 144.563C119.837 144.563 150.764 144.008 168.227 144.008C168.227 144.008 186.931 177.572 185.005 199.763C183.08 221.954 142.752 216.916 88.8938 216.916C88.8938 216.916 105.314 250.344 77.9275 312.235Z" fill="#3D3EFF"/>
        <path d="M122.805 312.973C118.707 313.34 114.584 313.307 110.493 312.873C111.869 318.268 113.139 323.414 114.149 328.01C114.801 330.961 110.612 334.945 109.418 337.843L109.511 337.799C115.013 336.914 122.392 342.168 121.633 333.968C120.874 325.769 122.04 323.724 122.805 312.973Z" fill="#FFA4A4"/>
        <path d="M121.468 327.935C123.36 327.935 126.435 331.386 126.13 336.911C125.955 340.208 125.277 343.458 124.122 346.548H102.852C103.227 340.598 109.511 337.799 109.511 337.799C115.013 336.914 122.117 342.168 121.358 333.968L121.468 327.935Z" fill="#303083"/>
        <path d="M138.12 174.199C138.12 174.199 91.2426 182.742 85.9176 196.903C80.5926 211.063 105.433 312.226 105.433 312.226C119.834 314.446 127.222 312.226 127.222 312.226C142.202 242.946 124.65 219.968 124.65 219.968C159.557 218.472 181.586 221.812 185.008 199.779C186.1 192.784 178.299 166.024 138.12 174.199Z" fill="#3D3EFF"/>
        <path d="M137.295 174.199C137.295 174.199 90.4174 182.742 85.0924 196.903C79.7674 211.063 104.607 312.226 104.607 312.226" stroke="white" stroke-width="1.43388" stroke-miterlimit="10"/>
        <path d="M126.989 128.868C129.775 122.516 117.406 114.167 104.748 117.495C104.748 117.495 109.017 66.2676 119.021 59.8128C128.73 53.5494 131.068 83.0495 131.398 90.2533C131.387 90.2533 133.183 118.122 126.989 128.868Z" fill="#F3F3FF"/>
        <path d="M125.9 130.413C132.031 124.865 119.353 113.576 104.748 117.495C95.6108 118.927 60.0906 126.563 56.7514 128.313C53.4893 129.781 44.0688 134.56 42.8695 136.011C41.3568 137.842 41.1257 142.685 41.2192 143.323C41.3127 143.961 42.5532 147.281 42.5532 147.281C42.5532 147.281 44.9324 147.034 44.6299 144.424C44.2668 141.32 47.0063 140.357 48.8382 139.525C49.6028 139.181 51.5887 139.323 51.938 140.491C52.2873 141.658 49.391 143.073 48.9124 143.919C48.2001 145.201 49.0252 146.635 49.0417 146.665C49.0582 146.696 53.4591 144.274 54.309 143.819C55.0901 143.4 58.7621 139.079 60.3189 135.27C60.3299 135.267 115.137 140.166 125.9 130.413Z" fill="#CF8585"/>
        <path d="M119.097 32.2488C118.066 29.7218 113.792 16.6458 120.718 10.9982C127.643 5.3506 136.778 -0.444018 147.829 0.457489C158.881 1.359 161.962 16.1992 168.225 18.5847C174.488 20.9703 182.128 18.1409 189.349 24.6872C196.569 31.2336 189.074 41.5385 196.431 47.0391C203.789 52.5397 210.88 45.58 218.251 55.2997C226.701 66.4451 214.359 79.3242 226.354 80.4337C239.617 81.6597 247.618 104.306 241.925 119.337H172.837C128.724 112.464 119.097 32.2488 119.097 32.2488Z" fill="#000144"/>
        <path d="M123.859 10.2159C130.592 4.1994 138.42 0.196701 149.493 0.743154C160.567 1.28961 164.825 13.7304 171.162 15.9606C177.499 18.1908 185.49 15.0425 192.924 21.5083C200.359 27.9742 193.199 39.4608 200.749 44.8505C208.3 50.2401 215.14 42.8782 222.831 52.5951C231.652 63.7377 219.745 76.4504 231.77 77.1882C245.066 78.0065 253.758 94.9604 247.079 114.183" stroke="#FFCD10" stroke-width="1.43388" stroke-miterlimit="10"/>
        <path d="M119.628 144.368C119.628 144.368 115.711 112.175 113.64 110.488C108.989 106.699 105.29 101.265 107.229 93.7619C108.329 89.5262 117.172 61.4491 119.056 59.6655C120.94 57.8819 133.304 53.4243 133.304 53.4243H168.235C172.213 54.7613 184.7 59.291 187.684 63.9012C202.262 86.414 206.924 122.524 206.924 122.524H188.798C188.798 122.524 180.074 102.777 176.971 102.552C173.869 102.328 168.057 144.091 168.057 144.091C168.057 144.091 148.184 149.653 119.628 144.368Z" fill="#F3F3FF"/>
        <path d="M119.353 144.368C119.353 144.368 115.436 112.175 113.365 110.488C108.714 106.699 104.74 100.988 106.679 93.4844" stroke="white" stroke-width="1.43388" stroke-miterlimit="10"/>
        <path d="M144.127 57.3354C144.127 57.3354 128.036 88.2974 132.025 147.142" stroke="white" stroke-width="1.43388" stroke-miterlimit="10"/>
        <path d="M142.204 83.5483C143.376 83.5483 144.325 82.5908 144.325 81.4096C144.325 80.2285 143.376 79.271 142.204 79.271C141.033 79.271 140.084 80.2285 140.084 81.4096C140.084 82.5908 141.033 83.5483 142.204 83.5483Z" stroke="white" stroke-width="1.43388" stroke-miterlimit="10"/>
        <path d="M139.297 99.2319C140.468 99.2319 141.418 98.2744 141.418 97.0932C141.418 95.9121 140.468 94.9546 139.297 94.9546C138.126 94.9546 137.177 95.9121 137.177 97.0932C137.177 98.2744 138.126 99.2319 139.297 99.2319Z" stroke="white" stroke-width="1.43388" stroke-miterlimit="10"/>
        <path d="M137.743 114.971C138.914 114.971 139.864 114.014 139.864 112.833C139.864 111.651 138.914 110.694 137.743 110.694C136.572 110.694 135.623 111.651 135.623 112.833C135.623 114.014 136.572 114.971 137.743 114.971Z" stroke="white" stroke-width="1.43388" stroke-miterlimit="10"/>
        <path d="M204.914 131.304C195.939 140.821 137.914 128.094 137.914 128.094C137.914 128.094 134.888 132.915 131.346 133.087C127.803 133.259 124.45 131.997 122.651 133.528C120.852 135.059 119.037 137.725 117.629 138C115.957 138.344 114.241 138.418 112.546 138.216C113.148 136.542 113.84 134.903 114.62 133.306C113.55 134.18 112.221 135.783 111.443 136.452C111.119 136.756 110.703 136.941 110.262 136.978C109.821 137.014 109.38 136.901 109.011 136.654C109.011 136.654 111.336 133.076 112.251 132.119C113.167 131.162 115.976 128.76 117.532 128.213C119.373 127.42 130.146 122.097 135.524 121.215C141.226 120.283 187.401 117.148 187.401 117.148C204.103 117.137 212.45 123.315 204.914 131.304Z" fill="#FFA4A4"/>
        <path d="M114.281 137.658C114.281 137.658 117.615 131.814 118.731 131.195C120.698 130.102 123.264 128.666 123.264 128.666" stroke="#FFB5B5" stroke-width="0.860331" stroke-miterlimit="10" stroke-linecap="round"/>
        <path d="M116.586 137.553C116.586 137.553 119.532 132.746 120.649 132.127C122.615 131.035 125.181 129.598 125.181 129.598" stroke="#FFB5B5" stroke-width="0.860331" stroke-miterlimit="10" stroke-linecap="round"/>
        <path d="M147.45 31.8135C147.45 31.8135 152.31 47.1835 168.224 53.4247C168.224 53.4247 145.901 63.2331 133.293 53.4247V32.2573L147.45 31.8135Z" fill="#FFA4A4"/>
        <path d="M136.516 55.4247C135.38 54.8716 134.303 54.2014 133.304 53.4247V32.2573L147.45 31.8135C147.45 31.8135 147.587 32.2462 147.89 32.9979C149.334 39.486 145.428 52.9476 136.516 55.4247Z" fill="#CF8585"/>
        <path d="M147.079 34.1793C146.933 39.2333 137.501 51.1221 132.344 51.1221C128.07 51.1221 120.091 38.121 119.084 32.2598C118.052 26.2294 119.098 15.5334 127.624 15.3836C132.894 15.292 135.601 20.285 137.182 26.0741C139.108 33.0614 145.016 31.4942 145.016 31.4942C145.016 31.4942 146.707 27.6108 149.065 29.5525C151.422 31.4942 147.079 34.1793 147.079 34.1793Z" fill="#FFA4A4"/>
        <path d="M10.0721 346.548L23.8248 155.475L37.5774 346.95" stroke="#FFCD10" stroke-width="1.43388" stroke-miterlimit="10"/>
        <path d="M8.86462 155.475H189.94C191.071 155.475 192.156 155.022 192.956 154.216C193.757 153.41 194.207 152.316 194.209 151.176C194.209 150.034 193.759 148.939 192.958 148.132C192.158 147.324 191.072 146.871 189.94 146.871H8.86462V155.475Z" fill="white"/>
        <path d="M8.86462 155.475H189.94C191.071 155.475 192.156 155.022 192.956 154.216C193.757 153.41 194.207 152.316 194.209 151.176V151.176C194.209 150.034 193.759 148.939 192.958 148.132C192.158 147.324 191.072 146.871 189.94 146.871H8.86462" stroke="#FFCD10" stroke-width="1.43388" stroke-miterlimit="10"/>
        <path d="M80.59 81.9175H7.51678C6.71161 81.9182 5.9185 82.1148 5.2048 82.4907C4.4911 82.8666 3.87791 83.4107 3.4173 84.0767C2.95669 84.7427 2.66227 85.511 2.55905 86.3163C2.45582 87.1216 2.54685 87.9401 2.82439 88.7024L21.2529 139.187H106.822L87.7606 86.9631C87.2208 85.4833 86.2439 84.206 84.9616 83.3037C83.6794 82.4015 82.1535 81.9176 80.59 81.9175V81.9175Z" stroke="#000129" stroke-width="0.286777" stroke-miterlimit="10"/>
        <path d="M81.2473 81.9175H7.90458C4.51318 81.9175 2.15873 85.5429 3.33045 88.9631L19.2835 135.678C19.6017 136.682 20.2238 137.561 21.0625 138.19C21.9011 138.819 22.9142 139.168 23.9594 139.187H106.002L88.2419 87.1601C87.1637 84.009 84.3719 81.9175 81.2473 81.9175Z" fill="white"/>
        <path d="M78.2218 85.4155H4.87902C4.09367 85.4153 3.3199 85.6066 2.62361 85.9729C1.92731 86.3392 1.3291 86.8698 0.879907 87.5195C0.430717 88.1691 0.143852 88.9187 0.0437345 89.7042C-0.0563826 90.4898 0.0332138 91.2881 0.304895 92.0312L16.2579 135.892C16.6089 136.858 17.2456 137.692 18.0818 138.281C18.9181 138.871 19.9136 139.187 20.9338 139.187H102.976L85.2163 90.3364C84.6896 88.8931 83.7366 87.6474 82.4858 86.7675C81.2351 85.8875 79.7468 85.4157 78.2218 85.4155Z" fill="#D1D1FF"/>
        <path d="M21.0823 139.187H161.046C162.997 139.187 164.868 139.969 166.248 141.36C167.628 142.752 168.403 144.639 168.403 146.607H28.44C26.4886 146.607 24.6172 145.825 23.2373 144.434C21.8575 143.042 21.0823 141.155 21.0823 139.187Z" fill="white" stroke="#3D3EFF" stroke-width="1.72066" stroke-miterlimit="10"/>
        <path d="M80.59 81.9175H7.51678C6.71161 81.9182 5.9185 82.1148 5.2048 82.4907C4.4911 82.8666 3.87791 83.4107 3.4173 84.0767C2.95669 84.7427 2.66227 85.511 2.55905 86.3163C2.45582 87.1216 2.54685 87.9401 2.82439 88.7024L21.2529 139.187H106.822L87.7606 86.9631C87.2208 85.4833 86.2439 84.206 84.9616 83.3037C83.6794 82.4015 82.1535 81.9176 80.59 81.9175V81.9175Z" stroke="#3D3EFF" stroke-width="1.43388" stroke-miterlimit="10"/>
        <path d="M53.692 118.572C55.423 116.633 54.9036 113.315 52.5318 111.162C50.16 109.008 46.834 108.834 45.1029 110.773C43.3719 112.711 43.8914 116.029 46.2632 118.183C48.635 120.337 51.9609 120.511 53.692 118.572Z" fill="#FFCD10"/>
        <path d="M55.3731 116.806C57.1042 114.867 56.5847 111.549 54.2129 109.396C51.8411 107.242 48.5151 107.068 46.7841 109.007C45.0531 110.945 45.5725 114.263 47.9443 116.417C50.3161 118.57 53.6421 118.745 55.3731 116.806Z" stroke="#3D3EFF" stroke-width="1.43388" stroke-miterlimit="10"/>
    </g>
    <defs>
        <clipPath id="clip0">
            <rect width="250.069" height="347" fill="white"/>
        </clipPath>
    </defs>
</svg>
