<svg xmlns="http://www.w3.org/2000/svg" id="Layer_1" data-name="Layer 1" viewBox="0 0 198.28 62.65"><g id="layer1"><rect id="rect3112" x="0.84" y="1.12" width="59.29" height="59.53" style="fill:#f6ee16"></rect><path id="path3126" d="M1.22,1.29V31.34c0,16.52.1,30.14.22,30.26s13.74.22,30.26.22h30V1.29H1.22ZM2.38,2.45H60.59V60.66l-29,.08c-23,.07-29.07,0-29.19-.33S2.25,47.05,2.3,31.22L2.38,2.45ZM14.85,6.88a7.67,7.67,0,0,0-3.94,1A13.68,13.68,0,0,0,6,13.72c-.64,1.48-1.5,4.84-1.3,5s.55-.19,1.05-.58l.91-.71L11,21.86l4.4,4.38,1.16-1.12c1.13-1.1,1.17-1.2,1.17-3.69,0-1.59.14-2.66.38-2.8s.91.32,1.65,1.12l1.28,1.37V28l1.34,1.31c2.49,2.42,3.05,1.51-7,11.6l-9,9,3.13,3.14a18.52,18.52,0,0,0,3.63,3.14c.28,0,4.38-3.87,9.1-8.6,5-5,8.85-8.59,9.2-8.59s4.32,3.69,9.43,8.75c4.85,4.82,9,8.76,9.14,8.76.43,0,6.46-6,6.46-6.44,0-.18-4-4.35-8.93-9.26s-8.93-9.08-8.93-9.27a8.33,8.33,0,0,1,1.66-2l1.65-1.63V24.42c0-3.06.08-3.64.68-4.4A5.43,5.43,0,0,1,44,18.79c1-.53,1.24.09,1.25,3,0,2.35.07,2.56,1,3.46l1,1L51.42,22c2.45-2.45,4.48-4.21,4.85-4.21a2.36,2.36,0,0,1,1.28.58c.64.57.65.55.48-1-.38-3.54-3.68-8.42-6.67-9.86a7.89,7.89,0,0,0-6.3,0,43,43,0,0,0-6,5.28l-4.62,4.63.9.94a3.72,3.72,0,0,1,.9,1.24c0,.41-4.37,4.78-4.79,4.78s-4.8-4.4-4.8-5a2,2,0,0,1,.66-1.13,2,2,0,0,0,.66-1c0-.66-8.71-9-10.16-9.73a6.92,6.92,0,0,0-3-.74Z" transform="translate(-1.22 -0.31)" style="fill:#020202"></path></g><path d="M108,38.21a12.89,12.89,0,0,1,2.75-1.55A15.38,15.38,0,0,0,119.26,26a36.4,36.4,0,0,0-.13-11.48c-1.77-8.36-6.83-12.33-17-13.32C99.65,1,91,.87,82.91.89s-15.6.16-15.85.4-.4,7.43-.4,30.07c0,16.32.09,29.91.2,30.2.18.46,1.4.51,10.38.51s10.21,0,10.39-.51c.11-.29.19-5.22.19-11,0-8.31.09-10.36.42-10.09s2.79,5.13,5.7,11l5.29,10.6h11.31c6.22,0,11.37-.11,11.45-.25s-3-5.45-6.9-11.82S108,38.33,108,38.21ZM94.62,27.72c-1.64.75-6.71.89-7,.2a49.38,49.38,0,0,1-.07-5.38l.08-4.95,2.64-.1c.41,0,.78,0,1.13,0,2.45,0,3.7.45,4.92,1.64C99.14,21.83,98.29,26.05,94.62,27.72Z" transform="translate(-1.22 -0.31)"></path><path d="M161.14,37.85c3.14-3.43,4.48-7.8,4.48-14.64,0-7.34-1.42-11.62-5.11-15.57C157.14,4,152.09,2,144.56,1.26,142.36,1,134.41.91,127,.9s-14.35.08-14.49.3.7.84,1.78,1.5C118.2,5.09,121,9.27,122,14.52c.69,3.32.7,10,0,12.68A17.53,17.53,0,0,1,114.14,38c-2,1.14-2.29,1.56-1.71,2.67,1.3,2.47,12.62,21,13,21.37.74.6,8.12.58,8.61,0,.24-.29.4-3.37.46-9l.08-8.58,6.45-.21C151.93,43.81,157.2,42.14,161.14,37.85ZM142,27.34c-1.37.77-6.37,1.29-7.15.75-.32-.22-.4-1.48-.33-5.06l.08-4.78,2.74-.09c.29,0,.57,0,.85,0h0c4.12.06,6.16,1.73,6.17,5A4.27,4.27,0,0,1,142,27.34Z" transform="translate(-1.22 -0.31)"></path><path d="M199.5,39l-.76.47c-4.34,2.78-8.05,3.92-12,3.69-4.5-.26-7.82-2.4-9.6-6.19-.76-1.63-.86-2.27-.86-5.32s.1-3.7.85-5.3c2.26-4.79,7.39-7.26,13.2-6.36a20.74,20.74,0,0,1,8.41,3.69,7.93,7.93,0,0,0,.74.53V2.78A28.31,28.31,0,0,0,195,1.35a34.59,34.59,0,0,0-8.25-1C179.53.25,172.17,2.24,167,5.89c-2.88,2.05-2.74,1.61-1.39,4.51,2.19,4.73,2.39,5.8,2.37,13,0,6.11,0,6.59-.9,9.12A17.78,17.78,0,0,1,158.51,43a14.82,14.82,0,0,0-2.23,1.38,17.76,17.76,0,0,0,.87,1.88c4.21,8.37,13.14,14.67,23.1,16.31A43.61,43.61,0,0,0,195,62c1.73-.45,3.68-1,4.34-1.3l.18-.08Z" transform="translate(-1.22 -0.31)"></path></svg>