<svg width="370" height="242" viewBox="0 0 370 242" fill="none" xmlns="http://www.w3.org/2000/svg">
    <path d="M271.613 167.689H60.4165C57.5185 167.685 54.6947 166.715 52.3429 164.916C49.9911 163.117 48.2297 160.58 47.3068 157.662L2.54515 16.0636C2.05345 14.5075 1.91731 12.8496 2.14797 11.2266C2.37864 9.60361 2.96948 8.06224 3.8717 6.72981C4.77392 5.39738 5.96161 4.31214 7.33665 3.56375C8.7117 2.81535 10.2346 2.42529 11.7796 2.42578H222.977C225.874 2.43072 228.698 3.40086 231.049 5.1997C233.401 6.99854 235.163 9.5355 236.086 12.4536L280.822 154.018C281.319 155.574 281.46 157.233 281.234 158.858C281.007 160.483 280.42 162.028 279.52 163.364C278.62 164.7 277.433 165.79 276.059 166.542C274.684 167.294 273.16 167.687 271.613 167.689Z" fill="#8B8CFF"/>
    <path d="M272.039 166.525H60.8364C57.9384 166.521 55.1146 165.551 52.7628 163.752C50.4109 161.953 48.6495 159.415 47.7267 156.497L2.98075 14.9269C2.48919 13.3713 2.35298 11.7138 2.58337 10.0913C2.81376 8.46871 3.40414 6.92766 4.30576 5.59535C5.20738 4.26305 6.39438 3.17771 7.76875 2.42894C9.14311 1.68017 10.6654 1.28946 12.21 1.28906H223.402C226.3 1.29316 229.123 2.26299 231.475 4.06194C233.827 5.8609 235.588 8.39833 236.511 11.3169L281.252 152.887C281.743 154.441 281.88 156.097 281.65 157.718C281.42 159.34 280.831 160.88 279.932 162.212C279.032 163.544 277.847 164.629 276.475 165.379C275.102 166.129 273.582 166.522 272.039 166.525Z" fill="white"/>
    <path d="M271.613 167.231H60.4165C57.5183 167.228 54.6942 166.258 52.3422 164.459C49.9902 162.66 48.229 160.122 47.3068 157.203L2.54515 15.6329C2.05345 14.0769 1.91731 12.4189 2.14797 10.7959C2.37864 9.17295 2.96948 7.63158 3.8717 6.29915C4.77392 4.96672 5.96161 3.88148 7.33665 3.13308C8.7117 2.38469 10.2346 1.99463 11.7796 1.99512H222.977C225.874 2.00006 228.698 2.97021 231.049 4.76905C233.401 6.56788 235.163 9.10484 236.086 12.0229L280.843 153.593C281.334 155.149 281.47 156.806 281.24 158.429C281.01 160.051 280.419 161.592 279.518 162.925C278.616 164.257 277.429 165.342 276.055 166.091C274.68 166.84 273.158 167.23 271.613 167.231V167.231Z" stroke="#3D3EFF" stroke-width="3.3426" stroke-miterlimit="10"/>
    <path d="M180.265 122.859L196.332 165.338H161.607C161.607 165.338 168.356 132.107 180.265 122.859Z" fill="#D1D1FF"/>
    <path d="M203.359 218.613C134.984 218.613 163.736 140.881 177.334 124.736H124.711C111.119 140.892 74.3335 222.881 142.703 222.881H203.359V218.613Z" fill="white" stroke="#3D3EFF" stroke-width="3.3426" stroke-miterlimit="10"/>
    <path d="M149.512 85.4591C152.458 80.5 150.08 73.2834 144.2 69.3403C138.32 65.3972 131.164 66.2209 128.218 71.18C125.272 76.139 127.65 83.3557 133.53 87.2988C139.41 91.2418 146.566 90.4182 149.512 85.4591Z" fill="#D1D1FF"/>
    <path d="M148.676 84.6779C151.622 79.7188 149.244 72.5021 143.363 68.5591C137.483 64.616 130.328 65.4396 127.382 70.3987C124.435 75.3578 126.814 82.5744 132.694 86.5175C138.574 90.4606 145.729 89.6369 148.676 84.6779Z" stroke="#3D3EFF" stroke-width="3.3426" stroke-miterlimit="10"/>
    <path d="M46.3735 222.881H359.522C364.126 222.881 367.86 226.58 367.86 231.148C367.86 235.711 364.126 239.41 359.522 239.41H46.3735V222.881Z" fill="white"/>
    <path d="M46.3735 222.881H359.522C364.126 222.881 367.86 226.58 367.86 231.148C367.86 235.711 364.126 239.41 359.522 239.41H46.3735" stroke="#3D3EFF" stroke-width="3.3426" stroke-miterlimit="10"/>
</svg>
