<svg width="527" height="455" viewBox="0 0 527 455" fill="none" xmlns="http://www.w3.org/2000/svg">
    <mask id="mask0" mask-type="alpha" maskUnits="userSpaceOnUse" x="0" y="0" width="527" height="455">
        <rect width="527" height="455" fill="#C4C4C4"/>
    </mask>
    <g mask="url(#mask0)">
        <g clip-path="url(#clip0)">
            <path d="M259.544 178.178C259.544 178.178 255.835 266.962 248.11 283.259C240.385 299.556 194.66 374.586 176.643 372.847C142.545 369.501 93.7264 211.277 87.7582 191.516C84.8379 186.795 81.7525 183.746 76.7152 181.434C52.3546 170.141 48.0906 160.885 42.9932 152.64L39.3298 128.306C50.4553 121.846 59.4714 139.912 62.4667 144.194C70.4243 155.569 80.5439 152.833 84.1548 152.372C89.4698 151.673 81.4898 145.361 78.4344 139.644C74.0277 131.399 79.7481 126.648 79.7481 126.648C80.8442 130.99 99.2666 150.804 105.145 157.614C110.55 163.866 110.039 176.892 109.919 178.996C117.276 190.088 174.068 286.426 174.068 286.426C174.068 286.426 206.093 210.355 219.11 196.214C228.569 185.984 250.528 181.077 259.544 178.178Z" fill="#FFC9C9"/>
            <path d="M54.9145 152.84C54.9145 152.84 53.3455 144.231 48.3158 139.591C48.3158 139.591 46.6792 130.038 40.163 128.439" stroke="#FFB5B5" stroke-width="2.28632" stroke-miterlimit="10" stroke-linecap="round"/>
            <path d="M59.9368 150.834C59.9368 150.834 57.9474 142.343 52.6924 137.92C52.6924 137.92 47.2873 124.798 40.2381 128.403" stroke="#FFB5B5" stroke-width="2.28632" stroke-miterlimit="10" stroke-linecap="round"/>
            <path d="M57.1591 590.875C57.1591 590.875 45.2604 523.71 91.812 494.009C138.364 464.307 274.303 439.855 268.387 409.648L387.465 406.986C387.465 406.986 414.393 445.862 418.755 487.102C423.814 534.84 412.914 570.92 314.406 570.719C261.541 570.608 268.837 603.023 268.837 603.023C268.837 603.023 216.836 616.643 154.061 614.42C91.2865 612.197 57.1591 590.875 57.1591 590.875Z" fill="#2929A9"/>
            <path d="M282.561 169.405C275.474 170.996 259.544 178.171 259.544 178.171C259.544 178.171 237.773 259.952 232.518 270.948C227.263 281.943 223.832 299.638 246.031 315.422L268.552 411.068H387.503C387.503 411.068 396.676 311.117 402.96 276.204C409.243 241.291 401.391 174.505 401.391 174.505L357.339 169.405H282.561Z" fill="#D1D1FF"/>
            <path d="M487.625 386.839C482.37 417.998 301.741 411.73 290.068 411.292C287.275 414.154 277.433 423.425 269.048 421.611C259.153 419.455 250.775 413.611 244.687 416.451C238.599 419.291 231.617 425.209 227.518 424.927C222.642 424.64 217.842 423.586 213.3 421.804C216.188 417.698 219.3 413.752 222.624 409.983C219.035 411.574 214.178 414.957 211.543 416.206C210.424 416.793 209.138 416.991 207.891 416.769C206.644 416.546 205.509 415.916 204.667 414.979C204.667 414.979 213.675 406.957 216.948 405.024C220.049 403.165 229.71 398.615 234.41 398.281C240.085 397.463 273.777 390.846 289.287 392.415V392.556C296.088 390.75 420.586 357.777 429.355 355.911C429.355 355.911 398.448 255.484 394.266 238.912C390.085 222.34 388.674 173.316 401.391 174.506C409.649 175.286 428.416 177.048 439.354 201.947C447.147 219.641 494.156 348.38 487.625 386.839Z" fill="#FFC9C9"/>
            <path d="M218.457 422.124C218.457 422.124 231.97 408.139 235.491 407.255C241.729 405.723 249.875 403.693 249.875 403.693" stroke="#FFB5B5" stroke-width="2.28632" stroke-miterlimit="10" stroke-linecap="round"/>
            <path d="M224.921 422.979C224.921 422.979 236.587 412.072 240.13 411.202C246.369 409.671 254.514 407.648 254.514 407.648" stroke="#FFB5B5" stroke-width="2.28632" stroke-miterlimit="10" stroke-linecap="round"/>
            <path d="M297.687 120.946C297.687 124.448 305.089 147.406 282.56 169.405C282.56 169.405 313.783 180.884 357.309 169.405C357.309 169.405 344.749 121.37 345.05 107.051L297.687 120.946Z" fill="#FFC9C9"/>
            <path d="M340.538 117.734C338.286 140.782 313.797 159.049 290.525 159.919C303.122 141.213 297.687 123.95 297.687 120.946L339.772 108.456C340.2 112.069 340.741 115.683 340.538 117.734Z" fill="#FFB5B5"/>
            <path d="M270.782 76.6949C268.094 73.5723 266.443 53.3947 277.576 43.856C298.731 25.7155 337.82 18.0207 361.25 31.0238C383.847 43.5363 392.848 60.0933 389.214 92.1366C385.746 122.79 378.261 128.99 397.472 151.658C414.738 172.037 420.091 200.794 409.611 224.919C384.049 283.764 433.634 282.515 433.634 312.232H356.806C356.806 312.232 303.153 266.219 329.367 209.009C352.827 157.829 356.911 140.283 340.125 112.359C331.304 97.6531 270.782 76.6949 270.782 76.6949Z" fill="#FFD63C"/>
            <path d="M355.087 29.1348C374.853 35.5063 400.009 58.2116 396.376 90.2475C392.908 120.901 385.423 127.108 404.596 149.769C421.863 170.148 427.215 198.912 416.735 223.03C391.211 281.883 440.758 280.634 440.758 310.343" stroke="#6767A4" stroke-width="2.28632" stroke-miterlimit="10"/>
            <path d="M339.945 97.3407C339.945 97.3407 351.956 95.8092 352.745 100.129C354.321 108.909 341.071 112.336 341.071 112.336C341.071 112.336 338.669 118.738 335.703 125.169C333.954 128.968 307.424 141.443 295.42 140.194C283.416 138.945 271.9 108.024 271.758 80.4566C271.638 60.4351 278.229 49.9746 292.125 49.9746C311.493 49.9746 320.546 64.1896 333.812 60.1303C333.789 60.1229 325.103 80.1369 339.945 97.3407Z" fill="#FFC9C9"/>
            <path d="M274.633 106.21C282.432 106.21 288.754 99.9492 288.754 92.2258C288.754 84.5023 282.432 78.2412 274.633 78.2412C266.834 78.2412 260.512 84.5023 260.512 92.2258C260.512 99.9492 266.834 106.21 274.633 106.21Z" stroke="#303083" stroke-width="3.04843" stroke-miterlimit="10"/>
            <path d="M309.849 106.21C317.648 106.21 323.97 99.9492 323.97 92.2258C323.97 84.5023 317.648 78.2412 309.849 78.2412C302.05 78.2412 295.728 84.5023 295.728 92.2258C295.728 99.9492 302.05 106.21 309.849 106.21Z" stroke="#303083" stroke-width="3.04843" stroke-miterlimit="10"/>
            <path d="M288.746 92.2256H295.728" stroke="#303083" stroke-width="3.04843" stroke-miterlimit="10"/>
            <path d="M323.97 92.2256H353.495" stroke="#303083" stroke-width="3.04843" stroke-miterlimit="10"/>
        </g>
    </g>
    <defs>
        <clipPath id="clip0">
            <rect width="449.211" height="894.372" fill="white" transform="translate(39.037 24.5342)"/>
        </clipPath>
    </defs>
</svg>
