<svg width="351" height="470" viewBox="0 0 351 470" fill="none" xmlns="http://www.w3.org/2000/svg">
    <g clip-path="url(#clip0)">
        <path d="M93.9205 438.138V521.269L15.388 648.681" stroke="#3D3EFF" stroke-width="3.49694" stroke-miterlimit="10"/>
        <path d="M123.562 438.138V521.269L202.095 648.681" stroke="#3D3EFF" stroke-width="3.49694" stroke-miterlimit="10"/>
        <path d="M179.357 409.839H38.1315C30.0779 409.839 23.5491 416.174 23.5491 423.988C23.5491 431.803 30.0779 438.138 38.1315 438.138H179.357C187.411 438.138 193.94 431.803 193.94 423.988C193.94 416.174 187.411 409.839 179.357 409.839Z" fill="white" stroke="#FFCD10" stroke-width="2.91411" stroke-miterlimit="10"/>
        <path d="M108.741 439.46V648.876" stroke="#3D3EFF" stroke-width="3.49694" stroke-miterlimit="10"/>
        <path d="M193.654 208.496C193.654 208.496 190.689 236.677 192.885 236.831C220.077 238.724 251.384 241.976 256.22 243.674C262.816 245.583 282.007 251.073 284.658 253.45C288.004 256.455 289.637 266.313 289.637 267.527C289.637 268.742 288.041 275.153 288.041 275.153C288.041 275.153 283.428 275.271 283.364 270.398C283.274 264.625 277.796 263.494 274.09 262.423C272.541 261.976 268.787 262.717 268.405 264.944C268.023 267.172 273.909 269.061 275.012 270.522C276.688 272.709 275.468 275.549 275.442 275.605L264.672 271.644C263.081 271.062 254.99 263.998 251.071 257.371C251.071 257.371 174.447 280.416 155.395 268.819C148.194 264.44 149.562 250.414 152.494 228.887L193.654 208.496Z" fill="#A96C6C"/>
        <path d="M78.6862 425.008C152.515 425.09 161.461 425.703 203.246 423.897C203.246 423.897 200.992 403.666 207.647 387.494C227.214 339.952 252.311 348.437 252.311 348.437C233.916 338.259 209.222 329.024 152.467 325.659C146.873 311.458 146.369 299.722 145.298 289.251L51.3669 289.117C51.3669 289.117 38.736 311.298 26.2641 356.098C14.1528 399.611 49.0709 424.977 78.6862 425.008Z" fill="#303083"/>
        <path d="M276.455 442.131C279.716 425.018 275.887 396.2 249.273 400.491C222.659 404.782 227.363 421.277 227.389 432.206C227.463 463.659 216.471 479.542 212.876 506.606C207.913 543.986 215.898 589.125 223.073 618.901L217.192 631.532C217.192 631.532 227.41 640.794 250.986 642.337C274.562 643.881 257.763 633.884 257.763 633.884C246.235 622.873 239.914 614.939 242.884 593.988C245.01 578.979 271.438 468.47 276.455 442.131Z" fill="#CF8585"/>
        <path d="M237.136 350.093C261.438 338.733 264.519 368.482 260.743 382.364C259.2 388.101 242.969 433.626 237.995 449.016C233.021 464.405 195.536 554.586 191.687 608.117C191.644 608.698 186.034 622.554 172.512 582.745C167.496 567.963 180.89 569.625 180.132 563.116C176.473 531.813 171.197 465.331 178.658 429.34C181.67 414.81 201.078 366.944 237.136 350.093Z" fill="#FFB5B5"/>
        <path d="M155.013 284.214C155.013 284.214 161.286 251.058 172.597 218.972C172.597 218.972 176.616 217.017 203.92 203.537C203.92 203.537 204.577 165.745 184.348 147.809C170.99 135.975 143.634 127.228 143.634 127.228L91.0526 124.506C80.9139 125.087 55.477 128.066 32.7816 145.478C10.346 162.683 0.233856 182.174 0.233856 182.174C0.233856 182.174 29.9288 188.934 51.5424 213.837L36.4192 284.214C36.4192 284.214 53.9127 293.676 94.5735 294.705C144.238 295.94 155.013 284.214 155.013 284.214Z" fill="#BADFD1"/>
        <path d="M180.026 244.009C179.861 249.962 164.648 245.445 164.547 247.745C164.472 248.138 164.481 248.542 164.572 248.932C164.663 249.322 164.835 249.69 165.078 250.014C165.777 250.966 166.239 252.211 165.263 254.048C163.959 256.507 168.307 257.135 166.986 261.102C165.666 265.069 167.708 264.564 167.962 268.64C168.243 273.245 148.263 277.242 142.297 274.999C141.708 274.765 141.182 274.402 140.76 273.939C132.434 274.227 12.5835 278.096 3.10768 264.863C-7.77339 249.69 14.4236 187.057 14.4236 187.057C35.5706 194.661 53.1754 213.843 53.1754 213.843L47.7296 235.993C80.8606 237.66 117.873 248.342 136.915 254.516C137.021 251.033 137.928 248.83 138.506 246.505C138.978 244.606 141.253 240.943 149.201 240.752C157.15 240.562 180.116 240.902 180.026 244.009Z" fill="#FFB5B5"/>
        <path d="M14.4238 187.057C14.4238 187.057 34.8868 192.624 53.1757 213.838L51.1553 222.157C51.1553 222.157 33.4763 206.593 9.95896 201.782L14.4238 187.057Z" fill="#A96C6C"/>
        <path d="M198.065 65.0779C194.534 72.981 197.249 75.6205 197.79 77.9873C198.32 80.2718 197.89 93.6854 178.467 93.387C177.613 94.4181 177.027 95.6327 176.757 96.9289C176.486 98.2251 176.54 99.5653 176.913 100.837C177.397 102.474 178.53 103.858 180.064 104.686C181.597 105.513 183.407 105.717 185.095 105.252C186.383 104.891 187.473 104.052 188.126 102.916C188.78 101.779 188.944 100.439 188.584 99.1857C188.446 98.712 188.213 98.2694 187.898 97.8834C187.583 97.4974 187.193 97.1756 186.749 96.9366C186.306 96.6975 185.818 96.5458 185.314 96.4903C184.81 96.4348 184.299 96.4765 183.812 96.6131C183.081 96.8178 182.464 97.2946 182.094 97.9395C181.725 98.5844 181.633 99.345 181.839 100.055C181.914 100.311 182.04 100.55 182.21 100.758C182.38 100.967 182.591 101.141 182.83 101.27C183.07 101.399 183.333 101.481 183.605 101.511C183.878 101.541 184.153 101.518 184.416 101.444C184.687 101.369 184.978 101.402 185.224 101.534C185.47 101.667 185.651 101.889 185.729 102.152C185.806 102.415 185.773 102.696 185.636 102.935C185.499 103.174 185.27 103.35 185 103.425C183.927 103.721 182.778 103.591 181.804 103.066C180.83 102.54 180.11 101.661 179.803 100.621C179.623 100.009 179.568 99.369 179.643 98.7368C179.718 98.1045 179.92 97.4928 180.239 96.9365C180.558 96.3803 180.986 95.8904 181.5 95.495C182.014 95.0996 182.603 94.8064 183.234 94.6321C184.758 94.2118 186.391 94.3957 187.775 95.1434C189.159 95.8911 190.181 97.1415 190.615 98.6197C191.133 100.394 190.907 102.296 189.986 103.909C189.066 105.523 187.525 106.717 185.7 107.233C184.916 107.447 184.106 107.556 183.292 107.557C181.392 107.553 179.545 106.949 178.031 105.834C176.517 104.72 175.419 103.157 174.903 101.383C174.504 100.029 174.395 98.6092 174.584 97.2126C174.773 95.816 175.255 94.4719 176.001 93.2635C154.128 91.9618 91.0789 124.485 91.0789 124.485C91.0789 124.485 77.5041 128.303 73.4264 119.854C73.4264 119.854 51.9718 120.94 47.6289 108.02C45.9055 102.901 46.3563 99.1085 47.5334 96.3918C46.3646 97.0427 45.0597 97.4296 43.7155 97.5238C43.5458 97.5238 43.3691 97.5238 43.1853 97.5238C40.9615 97.5214 38.8222 96.6969 37.2027 95.2182C35.5833 93.7395 34.6052 91.7177 34.4677 89.5641C34.3649 87.7166 35.021 85.9048 36.2922 84.5257C37.5634 83.1466 39.3461 82.3126 41.2498 82.2064C42.8312 82.1221 44.3826 82.6492 45.5643 83.6724C46.7459 84.6956 47.4617 86.1314 47.5547 87.6655C47.6285 88.9472 47.1753 90.205 46.2945 91.1628C45.4137 92.1207 44.1773 92.7004 42.8565 92.7747C41.7434 92.8365 40.6506 92.4669 39.8183 91.7472C38.9861 91.0274 38.4824 90.0164 38.4182 88.9364C38.4102 88.8012 38.4297 88.6659 38.4756 88.5381C38.5215 88.4102 38.5929 88.2924 38.6857 88.1914C38.7785 88.0903 38.8909 88.008 39.0165 87.9491C39.1421 87.8902 39.2784 87.8559 39.4177 87.8481C39.557 87.8404 39.6965 87.8593 39.8282 87.9038C39.9599 87.9484 40.0813 88.0176 40.1855 88.1077C40.2896 88.1978 40.3745 88.3069 40.4352 88.4287C40.4959 88.5506 40.5312 88.6829 40.5392 88.818C40.5548 89.0833 40.6241 89.3429 40.7431 89.5822C40.8622 89.8214 41.0286 90.0356 41.233 90.2123C41.4373 90.3892 41.6756 90.5251 41.9342 90.6125C42.1927 90.7 42.4665 90.7371 42.7398 90.7218C43.4996 90.6793 44.2111 90.3461 44.7181 89.7954C45.225 89.2446 45.4862 88.5212 45.4442 87.7838C45.4158 87.293 45.2878 86.8125 45.0676 86.3697C44.8474 85.927 44.5393 85.5308 44.1609 85.2038C43.7826 84.8769 43.3415 84.6256 42.8628 84.4644C42.3842 84.3032 41.8775 84.2353 41.3717 84.2645C40.7061 84.3013 40.0545 84.4651 39.4542 84.7465C38.8539 85.028 38.3167 85.4216 37.8734 85.9048C37.4301 86.388 37.0894 86.9513 36.8708 87.5624C36.6522 88.1736 36.5599 88.8205 36.5994 89.4663C36.7032 91.1648 37.4976 92.7539 38.808 93.8845C40.1184 95.0152 41.8377 95.595 43.5883 95.4965C46.6267 95.3268 49.8878 92.5483 51.59 89.2862C49.0182 86.1682 43.4239 78.0902 45.7093 69.2919C48.419 58.8419 59.019 56.7684 59.019 56.7684C59.019 56.7684 49.4742 37.2936 67.5033 27.919C72.3022 25.4236 76.6186 24.5643 80.3888 24.6569C79.9477 24.1988 79.5552 23.6989 79.2169 23.1648C78.4729 21.9775 78.2207 20.5606 78.511 19.1999C78.8013 17.8393 79.6126 16.636 80.7812 15.8329C81.2628 15.5113 81.8072 15.2889 82.3808 15.1791C82.9544 15.0694 83.5451 15.0748 84.1165 15.1949C84.7044 15.3197 85.26 15.5592 85.7495 15.8988C86.239 16.2385 86.6523 16.6712 86.9641 17.1706C87.494 18.0128 87.6739 19.019 87.467 19.9851C87.2602 20.9512 86.6823 21.8048 85.8505 22.3725C85.6177 22.526 85.3317 22.5835 85.0552 22.5324C84.7788 22.4812 84.5346 22.3256 84.3764 22.0998C84.2181 21.8739 84.1589 21.5963 84.2116 21.3281C84.2643 21.0598 84.4246 20.8229 84.6574 20.6694C85.0409 20.4027 85.3057 20.0046 85.3983 19.5557C85.4908 19.1067 85.4041 18.6404 85.1558 18.2511C84.9935 17.9906 84.7781 17.765 84.5228 17.5881C84.2675 17.4112 83.9777 17.2866 83.6711 17.2221C83.38 17.1629 83.0796 17.1615 82.7879 17.2181C82.4963 17.2747 82.2195 17.3881 81.9743 17.5514C81.2472 18.0533 80.7445 18.805 80.5682 19.6537C80.3919 20.5024 80.5552 21.3843 81.0251 22.1203C81.6455 23.1031 84.0105 26.2005 88.1678 24.7444C88.06 22.8639 88.3561 20.9821 89.0374 19.2184C89.5366 17.994 90.3142 16.8948 91.3122 16.0027C92.538 14.9579 94.0212 14.2383 95.618 13.9137C97.9232 13.4639 100.294 13.429 102.612 13.8108C102.612 13.8108 103.392 7.44099 110.762 4.85293C121.978 0.911684 132.503 8.15618 132.503 8.15618C132.503 8.15618 142.154 -2.78259 156.005 2.22372C168.01 6.57144 169.378 14.8038 169.532 16.8928C171.28 17.0279 173.022 16.5676 174.458 15.591C178.032 13.0647 176.712 9.41676 176.224 8.38771C175.858 7.59765 175.197 6.97198 174.374 6.63757C173.551 6.30316 172.627 6.28504 171.791 6.58688C171.514 6.69259 171.261 6.85206 171.05 7.05554C170.838 7.25901 170.672 7.50222 170.561 7.77028C170.446 8.0545 170.391 8.35847 170.401 8.66366C170.411 8.96885 170.485 9.26886 170.619 9.54539C170.812 9.96593 171.163 10.2989 171.601 10.4759C172.039 10.6529 172.53 10.6606 172.973 10.4973C173.235 10.3963 173.527 10.4003 173.786 10.5083C174.044 10.6164 174.248 10.8197 174.352 11.0735C174.456 11.3273 174.452 11.6109 174.341 11.8618C174.229 12.1126 174.02 12.3103 173.758 12.4113C172.807 12.7611 171.753 12.7462 170.813 12.3697C169.872 11.9931 169.115 11.2831 168.694 10.3841C168.443 9.85441 168.305 9.28064 168.29 8.6977C168.274 8.11477 168.381 7.53488 168.604 6.99335C168.822 6.4677 169.149 5.99081 169.564 5.59182C169.979 5.19283 170.473 4.88013 171.017 4.67285C172.36 4.17815 173.846 4.19862 175.174 4.73009C176.502 5.26156 177.572 6.26409 178.165 7.5336C179.517 10.4407 179.58 14.5208 175.715 17.2581C175.587 17.3507 175.455 17.4382 175.317 17.5256C177.364 17.8189 179.464 18.4466 180.694 19.7484C183.679 22.9127 180.694 27.1267 180.694 27.1267C180.694 27.1267 188.16 28.4438 190.536 33.9801C192.911 39.5164 189.109 42.4132 193.457 46.3647C197.806 50.3162 201.608 57.1697 198.065 65.0779Z" fill="#303083"/>
        <path d="M124.862 89.8676C124.862 89.8676 125.005 50.3161 157.325 50.8461C189.644 51.3761 176.123 93.2891 176.123 93.2891L124.862 89.8676Z" fill="white"/>
        <path d="M124.889 88.5508C124.889 88.5508 118.552 108.211 91.0525 124.501C91.0525 124.501 122.025 137.544 147.261 128.061L124.889 88.5508Z" fill="#FFB5B5"/>
        <path d="M147.282 128.055C141.551 130.136 135.506 131.287 129.39 131.462C115.667 119.859 122.709 93.9271 124.448 89.8675C124.576 89.5691 124.761 89.1935 124.979 88.751L147.282 128.055Z" fill="#A96C6C"/>
        <path d="M124.862 89.8684C122.714 94.8798 134.237 128.061 147.282 128.061C162.484 128.061 191.135 81.672 169.675 70.6046C148.215 59.5372 126.903 85.0833 124.862 89.8684Z" fill="#FFB5B5"/>
        <path d="M100.894 275.07H350.242V288.597H100.894C99.0469 288.597 97.2749 287.886 95.9675 286.619C94.6601 285.352 93.9242 283.634 93.9214 281.841C93.9214 280.047 94.656 278.326 95.9637 277.057C97.2714 275.788 99.045 275.075 100.894 275.075V275.07Z" fill="white"/>
        <path d="M350.241 288.604H100.894C99.0457 288.604 97.2728 287.892 95.9653 286.624C94.6578 285.356 93.9225 283.637 93.9211 281.843V281.843C93.9211 280.049 94.6557 278.328 95.9634 277.059C97.2711 275.79 99.0447 275.077 100.894 275.077H350.241" stroke="#FFCD10" stroke-width="2.91411" stroke-miterlimit="10"/>
        <path d="M268.172 274.639H147.982C147.334 274.639 146.696 274.48 146.128 274.176C145.561 273.873 145.081 273.435 144.735 272.903C144.389 272.372 144.187 271.764 144.148 271.136C144.11 270.508 144.235 269.881 144.514 269.313L181.5 193.647C182.388 191.825 183.792 190.286 185.548 189.208C187.303 188.13 189.338 187.559 191.416 187.561H311.606C312.256 187.558 312.897 187.715 313.467 188.019C314.038 188.322 314.52 188.761 314.867 189.294C315.215 189.828 315.417 190.438 315.455 191.068C315.493 191.698 315.366 192.327 315.085 192.896L278.088 268.562C277.196 270.381 275.791 271.917 274.036 272.992C272.281 274.068 270.248 274.639 268.172 274.639V274.639Z" stroke="#000129" stroke-width="0.582823" stroke-miterlimit="10"/>
        <path d="M268.581 274.638H148.39C147.742 274.639 147.105 274.48 146.537 274.176C145.969 273.873 145.49 273.435 145.144 272.903C144.798 272.372 144.596 271.764 144.557 271.136C144.518 270.508 144.644 269.881 144.923 269.313L181.909 193.647C182.799 191.826 184.203 190.288 185.958 189.21C187.713 188.133 189.748 187.561 191.825 187.561H312.015C312.663 187.56 313.3 187.719 313.868 188.023C314.436 188.326 314.915 188.764 315.261 189.296C315.608 189.827 315.809 190.435 315.848 191.063C315.887 191.691 315.761 192.318 315.483 192.886L278.497 268.562C277.606 270.381 276.201 271.918 274.446 272.994C272.69 274.069 270.657 274.64 268.581 274.638Z" fill="#F3F3FF" stroke="#3D3EFF" stroke-width="3.49694" stroke-miterlimit="10"/>
        <path d="M149.424 272.735L185.668 198.577C186.541 196.792 187.917 195.285 189.638 194.229C191.358 193.174 193.352 192.613 195.387 192.613H307.343C307.978 192.613 308.603 192.77 309.16 193.067C309.716 193.365 310.186 193.794 310.525 194.316C310.864 194.837 311.062 195.433 311.1 196.049C311.138 196.664 311.015 197.279 310.742 197.836L276.375 268.171C275.817 269.314 274.938 270.282 273.838 270.962C272.739 271.642 271.464 272.007 270.16 272.015L149.424 272.735Z" fill="white"/>
        <path d="M205.643 231.753V272.735H230.2L205.643 231.753Z" fill="#F3F3FF"/>
        <path d="M295.295 274.438H232.241L207.685 233.461H270.739L295.295 274.438Z" stroke="#000129" stroke-width="0.582823" stroke-miterlimit="10"/>
        <path d="M291.101 274.438H232.549L207.993 233.461H266.545L291.101 274.438Z" fill="#8B8CFF"/>
        <path d="M296.934 274.438H238.382L213.825 233.461H272.377L296.934 274.438Z" fill="white"/>
        <path d="M295.295 274.649H232.241L207.685 233.672H270.739L295.295 274.649Z" stroke="#3D3EFF" stroke-width="3.49694" stroke-miterlimit="10"/>
    </g>
    <defs>
        <clipPath id="clip0">
            <rect width="350.135" height="648.562" fill="white" transform="translate(0.105835 0.911133)"/>
        </clipPath>
    </defs>
</svg>
